<svg width="114" height="140" viewBox="0 0 114 140" fill="none" xmlns="http://www.w3.org/2000/svg">
<path d="M113.592 77.6098C113.17 76.5194 112.184 75.8079 111.09 75.8079H81.4223V2.91578C81.4223 1.30632 80.2093 0 78.7148 0H35.3959C33.9013 0 32.6883 1.30632 32.6883 2.91578V75.8082H2.90671C1.81299 75.8082 0.827403 76.5197 0.405044 77.6044C-0.0119848 78.6947 0.215438 79.9486 0.989848 80.7826L55.003 139.143C55.512 139.691 56.1998 140 56.9199 140C57.64 140 58.3279 139.691 58.8368 139.149L113.007 80.7883C113.781 79.954 114.014 78.7005 113.592 77.6098Z" fill="#7FA998"/>
</svg>
