<svg width="362" height="219" viewBox="0 0 362 219" fill="none" xmlns="http://www.w3.org/2000/svg">
<path d="M362 157.783H271.028V158.573H362V157.783Z" fill="#3F3D56"/>
<path d="M291.315 150.686L293.958 165.299L299.62 166.879L298.11 149.501L291.315 150.686Z" fill="#A0616A"/>
<path d="M323.023 150.686L325.666 165.299L331.328 166.879L329.818 149.501L323.023 150.686Z" fill="#A0616A"/>
<path d="M297.355 162.535C297.355 162.535 291.315 162.14 291.315 164.114C291.315 166.089 288.295 172.803 288.295 172.803C288.295 172.803 286.031 180.702 292.07 179.912C298.11 179.122 301.885 172.013 301.885 172.013L300.375 164.509L297.355 162.535Z" fill="#2F2E41"/>
<path d="M327.605 163.263C327.605 163.263 323.577 160.553 323.864 162.359C324.152 164.166 324.44 168.983 326.454 169.284C328.469 169.585 334.512 171.392 334.799 171.994C335.087 172.596 341.993 175.005 341.993 171.091C341.993 167.177 337.677 164.166 337.677 164.166L332.785 160.252C332.785 160.252 329.62 159.951 329.044 162.058C328.469 164.166 327.605 163.263 327.605 163.263Z" fill="#2F2E41"/>
<path d="M289.336 67.5365C289.336 67.5365 282.919 57.6627 280.654 60.8224C278.389 63.982 286.316 69.9062 286.316 69.9062L289.336 67.5365Z" fill="#A0616A"/>
<path d="M291.601 77.0153C291.223 76.6204 284.429 69.9062 284.429 69.9062L289.336 66.3517L294.998 72.2759L291.601 77.0153Z" fill="#575A89"/>
<path d="M292.545 46.4067C292.545 46.4067 287.637 46.8016 288.015 51.1461C288.392 55.4905 291.601 69.9062 291.601 69.9062L293.488 73.8557C293.488 73.8557 300.472 51.1461 292.545 46.4067Z" fill="#575A89"/>
<path d="M292.922 32.5834L294.281 37.3228H311.305L311.796 32.1885L313.268 37.3228H315.457L315.948 32.1885L317.42 37.3228H319.723L317.558 31.8659C316.552 29.2572 315.788 26.5535 315.275 23.7921C314.6 20.3632 312.815 17.2829 310.221 15.0711C307.627 12.8593 304.384 11.6513 301.038 11.651C300.837 11.651 300.637 11.6553 300.439 11.6637C290.897 12.0685 284.786 22.5234 288.447 31.7518L290.657 37.3228H292.469L292.922 32.5834Z" fill="#2F2E41"/>
<path d="M292.733 73.8557C292.733 73.8557 281.031 84.1244 284.429 97.9477C287.826 111.771 288.958 155.216 288.958 155.216L300.66 154.031V99.5275L316.892 131.913L319.534 155.216L332.746 152.846L326.706 124.409L315.092 88.1616L313.872 77.7042L292.733 73.8557Z" fill="#2F2E41"/>
<path d="M300.849 32.9784C305.227 32.9784 308.776 29.265 308.776 24.6844C308.776 20.1038 305.227 16.3904 300.849 16.3904C296.471 16.3904 292.922 20.1038 292.922 24.6844C292.922 29.265 296.471 32.9784 300.849 32.9784Z" fill="#A0616A"/>
<path d="M296.13 30.4112C296.13 30.4112 299.528 43.4445 297.64 45.0243C295.753 46.6041 310.852 39.89 310.852 39.89C310.852 39.89 304.435 32.3859 305.19 29.2263L296.13 30.4112Z" fill="#A0616A"/>
<path d="M310.097 37.1253C310.097 37.1253 304.053 42.5646 298.204 43.0046C298.204 43.0046 290.468 47.394 290.845 47.789C291.223 48.1839 292.355 53.7133 292.355 53.7133C292.355 53.7133 294.243 56.7627 294.243 63.1921C294.243 63.982 291.6 75.0406 291.6 75.0406L313.871 78.2002C313.871 78.2002 319.911 57.6628 320.289 50.5537C320.666 43.4445 322.931 35.9405 319.534 35.5455C316.136 35.1506 310.097 37.1253 310.097 37.1253Z" fill="#575A89"/>
<path d="M318.779 37.1253C318.779 37.1253 321.421 34.7556 322.931 40.2849C324.441 45.8142 330.481 63.1921 328.971 66.7466C327.461 70.3012 318.401 86.0992 318.401 86.0992L313.872 82.9396L322.931 65.1668L317.646 52.5284L318.779 37.1253Z" fill="#575A89"/>
<path d="M315.759 82.5446C315.759 82.5446 304.057 90.0487 307.832 91.6285C311.607 93.2083 318.024 84.9143 318.024 84.9143L315.759 82.5446Z" fill="#A0616A"/>
<path d="M292.167 15.2056V23.4995H295.187L296.319 19.945L296.602 23.4995H305.001L306.134 19.945L306.417 23.4995H309.908V15.2056H292.167Z" fill="#2F2E41"/>
<path opacity="0.2" d="M292.167 54.3057C292.167 54.3057 291.412 62.2047 292.544 63.7845C293.677 65.3643 292.167 54.3057 292.167 54.3057Z" fill="black"/>
<path d="M226.864 192.143H66.8135V192.933H226.864V192.143Z" fill="#3F3D56"/>
<path d="M217.128 132.154L170.691 180.741C163.592 188.168 153.964 192.341 143.924 192.341C133.885 192.341 124.257 188.168 117.157 180.741C116.531 180.086 115.927 179.41 115.353 178.715C114.408 177.585 113.526 176.399 112.714 175.161C109.736 170.653 107.699 165.539 106.735 160.152C106.52 158.979 106.358 157.795 106.248 156.598C106.131 155.322 106.072 154.035 106.071 152.735C106.068 149.101 106.54 145.484 107.475 141.985C107.796 140.78 108.172 139.595 108.604 138.43C110.51 133.289 113.424 128.622 117.157 124.729L137.416 103.532C138.478 102.421 139.918 101.797 141.42 101.797C142.921 101.797 144.361 102.421 145.423 103.532C146.484 104.643 147.081 106.15 147.081 107.721C147.081 109.292 146.484 110.798 145.423 111.909L125.164 133.106C123.633 134.705 122.293 136.493 121.174 138.43C118.688 142.747 117.381 147.695 117.395 152.735C117.396 154.027 117.48 155.318 117.648 156.598C117.806 157.798 118.04 158.985 118.35 160.152C119.587 164.831 121.975 169.089 125.276 172.5C128.577 175.911 132.676 178.357 137.162 179.592C141.649 180.828 146.367 180.811 150.846 179.543C155.324 178.275 159.406 175.799 162.685 172.364L174.356 160.152L195.118 138.43L209.122 123.777C213.525 119.158 216.235 113.065 216.778 106.565C217.322 100.066 215.663 93.5732 212.093 88.224C211.252 86.9346 210.932 85.3502 211.201 83.815C211.47 82.2798 212.307 80.9177 213.531 80.0246C214.754 79.1315 216.265 78.7795 217.735 79.045C219.205 79.3105 220.516 80.1721 221.382 81.4427C226.47 89.0756 228.831 98.3366 228.053 107.607C227.276 116.876 223.409 125.565 217.128 132.154Z" fill="#3F3D56"/>
<path d="M289.902 39.6056C289.902 39.8979 289.898 40.1901 289.89 40.4824C289.793 45.6525 288.725 50.752 286.746 55.4905C286.239 56.7054 285.672 57.8918 285.047 59.0451C283.351 62.1833 281.255 65.0653 278.815 67.6115L258.556 88.8085C257.494 89.9168 256.055 90.5386 254.555 90.5375C253.055 90.5364 251.616 89.9124 250.556 88.8026C249.495 87.6928 248.898 86.1879 248.897 84.6183C248.896 83.0488 249.491 81.543 250.55 80.4316L270.809 59.2347C270.869 59.1715 270.93 59.1083 270.986 59.0451C275.661 54.0804 278.368 47.4489 278.562 40.4824C278.574 40.1901 278.577 39.8979 278.577 39.6056C278.577 38.7051 278.537 37.8125 278.457 36.9279C277.865 30.5199 275.162 24.5268 270.809 19.9766C270.405 19.554 269.994 19.1472 269.567 18.7601C264.724 14.3055 258.497 11.8485 252.048 11.8485C245.6 11.8485 239.373 14.3055 234.53 18.7601C234.103 19.1472 233.692 19.554 233.288 19.9766L186.851 68.5634C181.883 73.7738 179.094 80.8329 179.094 88.1924C179.094 95.5519 181.883 102.611 186.851 107.821C187.912 108.932 188.509 110.439 188.509 112.01C188.509 113.581 187.912 115.087 186.851 116.198C185.789 117.309 184.349 117.933 182.848 117.933C181.346 117.933 179.906 117.309 178.844 116.198C171.756 108.765 167.775 98.693 167.775 88.1924C167.775 77.6918 171.756 67.6199 178.844 60.1865L225.282 11.5997C229.322 7.38146 234.22 4.17257 239.611 2.21261C245.003 0.252653 250.748 -0.407743 256.417 0.280722C262.087 0.969187 267.534 2.98873 272.353 6.18857C277.172 9.38842 281.238 13.6859 284.247 18.7601C284.933 19.9092 285.559 21.0957 286.123 22.3147C288.247 26.8897 289.5 31.8526 289.815 36.9279C289.872 37.8165 289.901 38.7091 289.902 39.6056Z" fill="#3F3D56"/>
<path d="M47.3035 208.007C45.5742 214.695 39.6511 218.837 39.6511 218.837C39.6511 218.837 36.5317 212.136 38.261 205.447C39.9902 198.759 45.9133 194.617 45.9133 194.617C45.9133 194.617 49.0327 201.319 47.3035 208.007Z" fill="#406043"/>
<path d="M31.5725 208.007C33.3018 214.695 39.2248 218.837 39.2248 218.837C39.2248 218.837 42.3442 212.136 40.615 205.447C38.8857 198.759 32.9627 194.617 32.9627 194.617C32.9627 194.617 29.8432 201.319 31.5725 208.007Z" fill="#406043"/>
<path d="M34.1132 206.569C38.8583 211.402 39.4379 218.832 39.4379 218.832C39.4379 218.832 32.3242 218.425 27.5791 213.592C22.834 208.76 22.2544 201.33 22.2544 201.33C22.2544 201.33 29.3681 201.736 34.1132 206.569Z" fill="#3F3D56"/>
<path d="M44.7627 206.569C40.0176 211.402 39.438 218.832 39.438 218.832C39.438 218.832 46.5517 218.425 51.2968 213.592C56.0419 208.76 56.6215 201.33 56.6215 201.33C56.6215 201.33 49.5078 201.736 44.7627 206.569Z" fill="#3F3D56"/>
<path d="M257.816 38.9026C257.816 39.4332 257.766 39.9624 257.665 40.4824C257.317 42.2664 256.39 43.8698 255.042 45.0212C253.694 46.1727 252.007 46.8016 250.267 46.8016C248.527 46.8016 246.84 46.1727 245.491 45.0212C244.143 43.8698 243.217 42.2664 242.868 40.4824C242.641 39.3059 242.671 38.0908 242.955 36.9279C243.413 35.0645 244.505 33.4401 246.026 32.3595C247.548 31.2789 249.394 30.8164 251.218 31.0587C253.042 31.3011 254.719 32.2318 255.934 33.676C257.149 35.1202 257.818 36.9787 257.816 38.9026Z" fill="#3F3D56"/>
<path d="M146.461 158.573C146.461 159.103 146.41 159.632 146.31 160.152C145.961 161.936 145.035 163.54 143.687 164.691C142.339 165.843 140.652 166.472 138.911 166.472C137.171 166.472 135.484 165.843 134.136 164.691C132.788 163.54 131.861 161.936 131.513 160.152C131.285 158.976 131.315 157.761 131.6 156.598C132.058 154.735 133.15 153.11 134.671 152.029C136.192 150.949 138.038 150.486 139.863 150.729C141.687 150.971 143.364 151.902 144.578 153.346C145.793 154.79 146.463 156.649 146.461 158.573Z" fill="#3F3D56"/>
<path d="M87.1971 218.21H0V219H87.1971V218.21Z" fill="#3F3D56"/>
<path d="M218.438 18.7601H234.53C234.104 19.1472 233.692 19.554 233.288 19.9766L231.054 22.3147H215.041L218.438 18.7601Z" fill="#406043"/>
<path d="M286.123 22.3147H272.806C272.183 21.4965 271.517 20.7159 270.809 19.9766C270.405 19.554 269.994 19.1472 269.567 18.7601H284.247C284.933 19.9092 285.559 21.0957 286.123 22.3147Z" fill="#406043"/>
<path d="M201.074 36.9279H217.087L213.689 40.4824H197.677L201.074 36.9279Z" fill="#406043"/>
<path d="M257.579 36.9279C257.863 38.0907 257.893 39.3058 257.665 40.4824H242.868C242.641 39.3058 242.671 38.0907 242.955 36.9279H257.579Z" fill="#406043"/>
<path d="M289.902 39.6056C289.902 39.8979 289.898 40.1902 289.891 40.4824H278.563C278.574 40.1902 278.578 39.8979 278.578 39.6056C278.578 38.7051 278.538 37.8126 278.457 36.9279H289.815C289.872 37.8165 289.901 38.7091 289.902 39.6056Z" fill="#406043"/>
<path d="M183.333 55.4905H199.345L195.948 59.0451H179.936L183.333 55.4905Z" fill="#406043"/>
<path d="M286.746 55.4905C286.24 56.7054 285.673 57.8918 285.048 59.0451H270.987C272.023 57.9456 272.969 56.7566 273.814 55.4905H286.746Z" fill="#406043"/>
<path d="M121.174 138.43C120.517 139.57 119.941 140.758 119.449 141.985H107.475C107.796 140.78 108.172 139.595 108.604 138.43H121.174Z" fill="#406043"/>
<path d="M211.13 138.43L207.733 141.985H191.72L195.118 138.43H211.13Z" fill="#406043"/>
<path d="M118.35 160.152H106.735C106.52 158.979 106.358 157.795 106.249 156.598H117.648C117.806 157.798 118.041 158.985 118.35 160.152Z" fill="#406043"/>
<path d="M146.461 158.573C146.461 159.103 146.41 159.632 146.31 160.152H131.513C131.285 158.976 131.315 157.761 131.6 156.598H146.223C146.381 157.243 146.461 157.907 146.461 158.573Z" fill="#406043"/>
<path d="M193.766 156.598L190.369 160.152H174.356L177.754 156.598H193.766Z" fill="#406043"/>
<path d="M134.548 178.715H115.353C114.407 177.585 113.526 176.399 112.714 175.161H128.281C130.206 176.638 132.314 177.834 134.548 178.715Z" fill="#406043"/>
<path d="M176.025 175.161L172.628 178.715H153.301C155.534 177.834 157.642 176.638 159.567 175.161H176.025Z" fill="#406043"/>
<path d="M119.129 67.0367C116.243 61.9346 110.534 61.6968 110.534 61.6968C110.534 61.6968 104.97 60.9524 101.401 68.723C98.0741 75.9658 93.4828 82.9588 100.662 84.6543L101.958 80.4316L102.761 84.9687C103.783 85.0456 104.809 85.064 105.833 85.0236C113.521 84.7639 120.842 85.0996 120.607 82.2132C120.293 78.376 121.906 71.9459 119.129 67.0367Z" fill="#2F2E41"/>
<path d="M98.3325 179.702L98.71 189.971H105.505L105.127 178.913L98.3325 179.702Z" fill="#FBBEBE"/>
<path d="M116.829 107.032L116.142 109.421L107.241 140.357L106.26 143.762L107.015 180.097L97.5777 181.282C97.5777 181.282 97.3022 177.467 96.8983 171.835C96.0867 160.682 94.758 142.391 93.9879 132.439C93.7048 128.758 93.501 126.218 93.4255 125.594C93.048 122.435 97.9552 106.637 97.9552 106.637L107.77 105.847L116.829 107.032Z" fill="#2F2E41"/>
<path d="M100.597 188.786C100.597 188.786 97.9552 185.627 97.5777 187.996C97.2002 190.366 92.6705 199.45 92.6705 199.45C92.6705 199.45 79.4588 208.534 90.7831 209.324C90.7831 209.324 96.4453 208.534 98.3326 205.374C98.3326 205.374 101.352 203.399 102.107 203.399C102.862 203.399 107.392 201.82 106.637 199.45C105.882 197.08 106.26 188.391 106.26 188.391L100.597 188.786Z" fill="#2F2E41"/>
<path d="M100.22 170.224L103.618 176.938L108.902 174.173L105.505 166.274L100.22 170.224Z" fill="#FBBEBE"/>
<path opacity="0.2" d="M97.5777 150.871C97.5777 150.871 94.7618 144.433 93.9917 134.481C99.4576 128.09 106.071 121.052 106.071 121.052L113.998 120.657L116.452 120.46C117.025 126.463 112.171 134.196 107.241 140.357C104.245 144.081 101.017 147.594 97.5777 150.871Z" fill="black"/>
<path d="M107.392 120.855C107.392 120.855 83.2334 142.972 86.6307 152.056C90.028 161.14 99.4649 172.198 99.4649 172.198L106.756 167.645L99.8423 150.871C99.8423 150.871 102.741 148.182 106.269 144.197C112.009 137.713 119.418 127.799 118.716 120.46L118.339 107.032L111.922 107.821L107.392 120.855Z" fill="#2F2E41"/>
<path d="M105.127 175.358C105.127 175.358 102.485 175.358 102.863 177.728C103.24 180.097 103.995 184.047 103.995 184.047C103.995 184.047 100.975 202.61 108.147 198.265C115.319 193.921 113.432 182.467 113.432 182.467C113.432 182.467 116.074 175.358 112.677 174.568C109.28 173.778 108.147 172.988 107.77 173.383C107.392 173.778 105.127 175.358 105.127 175.358Z" fill="#2F2E41"/>
<path d="M110.412 78.5951C114.164 78.5951 117.206 75.4123 117.206 71.486C117.206 67.5598 114.164 64.3769 110.412 64.3769C106.659 64.3769 103.617 67.5598 103.617 71.486C103.617 75.4123 106.659 78.5951 110.412 78.5951Z" fill="#FBBEBE"/>
<path d="M107.77 74.2507C107.77 74.2507 110.789 82.5446 109.657 82.9396C108.525 83.3345 106.26 85.3093 106.26 85.3093L110.035 88.8638L119.849 83.3345C119.849 83.3345 115.319 77.0153 115.697 74.2507H107.77Z" fill="#FBBEBE"/>
<path d="M119.849 81.7547C119.849 81.7547 111.95 85.8286 109.105 83.1993C109.105 83.1993 104.372 82.9396 103.617 85.7042C102.862 88.4689 104.372 90.8386 102.485 91.6285C100.598 92.4184 99.2764 94.5906 100.409 98.1452C101.541 101.7 101.353 102.292 99.8426 103.477C98.3327 104.662 96.8228 107.032 96.8228 107.821C96.8228 108.611 95.3129 108.611 96.0678 109.401C96.8228 110.191 95.3129 109.401 96.8228 110.191C98.3327 110.981 102.485 103.872 105.505 107.427C108.525 110.981 117.961 116.905 118.716 113.351C119.471 109.796 121.736 101.107 121.736 101.107C121.736 101.107 129.663 85.7042 127.398 84.1244C125.134 82.5446 119.849 81.7547 119.849 81.7547Z" fill="#CFCCE0"/>
<path d="M118.716 109.401C118.716 109.401 114.564 108.611 113.432 111.376C112.299 114.141 105.882 120.46 110.034 120.855C114.187 121.25 117.206 114.141 117.206 114.141L121.359 113.351L118.716 109.401Z" fill="#FBBEBE"/>
<path d="M122.869 84.1244L127.805 84.4121C127.805 84.4121 130.041 86.8891 130.418 89.2588C130.796 91.6285 137.968 109.401 133.438 111.376C128.908 113.351 119.094 114.536 119.094 114.536L117.961 109.006L124.379 106.637L119.849 96.7628L122.869 84.1244Z" fill="#CFCCE0"/>
<path opacity="0.2" d="M100.409 151.069L106.618 167.31L99.2764 151.069L105.693 143.959L100.409 151.069Z" fill="black"/>
<path opacity="0.2" d="M96.688 168.946L99.2764 172.396H97.389L96.688 168.946Z" fill="black"/>
<path d="M111.232 66.0421C113.512 66.0421 115.361 64.1082 115.361 61.7226C115.361 59.337 113.512 57.4031 111.232 57.4031C108.952 57.4031 107.104 59.337 107.104 61.7226C107.104 64.1082 108.952 66.0421 111.232 66.0421Z" fill="#2F2E41"/>
<path d="M106.669 60.5859C106.67 59.5191 107.047 58.4901 107.729 57.697C108.411 56.904 109.349 56.4031 110.363 56.2907C110.219 56.2747 110.074 56.2666 109.929 56.2664C109.386 56.2659 108.849 56.3772 108.348 56.5941C107.846 56.8109 107.391 57.129 107.007 57.5301C106.623 57.9313 106.319 58.4076 106.111 58.932C105.903 59.4563 105.796 60.0183 105.796 60.5859C105.796 61.1535 105.903 61.7155 106.111 62.2399C106.319 62.7642 106.623 63.2406 107.007 63.6417C107.391 64.0429 107.846 64.361 108.348 64.5778C108.849 64.7946 109.386 64.906 109.929 64.9054C110.074 64.9052 110.219 64.8971 110.363 64.8811C109.349 64.7688 108.411 64.2679 107.729 63.4748C107.047 62.6818 106.67 61.6527 106.669 60.5859Z" fill="#2F2E41"/>
<path d="M117.853 66.5448L112.212 63.4535L104.423 64.7182L102.811 72.1657L106.823 72.0042L107.944 69.268V71.9592L109.795 71.8845L110.869 67.5286L111.541 72.1657L118.122 72.0251L117.853 66.5448Z" fill="#2F2E41"/>
</svg>
