<svg width="600" height="430" viewBox="0 0 600 430" fill="none" xmlns="http://www.w3.org/2000/svg">
<g opacity="0.7">
<g clip-path="url(#clip0)">
<path d="M467.039 194.998C465.917 192.107 467.52 190.661 468.161 188.091C468.802 185.52 466.718 177.488 466.718 177.488C466.718 177.488 459.986 149.698 457.903 144.236C457.021 141.925 455.106 140.335 453.19 139.267C453.06 138.558 452.872 138.101 452.613 137.971C450.757 137.04 446.132 135.019 443.05 134.46C442.473 133.467 441.79 132.541 441.011 131.698C441.552 130.656 441.803 129.488 441.738 128.316C441.541 125.286 439.251 122.57 439.549 119.547C439.775 117.255 441.447 115.372 442.092 113.161C442.363 112.169 442.427 111.131 442.28 110.112C442.134 109.093 441.78 108.116 441.241 107.24C441.715 107.745 442.189 108.251 442.663 108.756C443.308 107.787 443.619 106.633 443.547 105.471C443.475 104.309 443.026 103.202 442.266 102.32C440.765 100.658 438.255 100.034 437.09 98.1202C435.893 96.1533 436.536 93.4806 435.404 91.4754C432.631 86.563 425.533 90.0453 421.282 88.3307C419.535 87.6261 418.206 86.8507 416.241 86.9064C414.569 87.0025 412.917 87.3117 411.324 87.8267C409.038 88.4896 407.049 89.9187 405.688 91.8751C405.823 91.7219 405.97 91.5808 406.129 91.4534C407.159 90.6442 408.966 90.7116 409.51 91.9047C409.639 92.2046 409.694 92.5318 409.668 92.8577C409.579 94.2961 408.325 95.3701 407.08 96.0899C405.834 96.8097 404.432 97.4119 403.619 98.6005C402.278 100.562 403.067 103.195 403.067 105.573C403.056 107.084 402.707 108.574 402.046 109.932C401.384 111.29 400.427 112.483 399.245 113.421L403.768 111.568C401.608 115.356 400.191 119.523 399.591 123.844L405.706 118.781C403.441 122.394 402.065 126.494 401.69 130.744L406.598 125.703C406.822 126.097 406.934 126.544 406.922 126.997L406.41 128.976C406.23 129.369 406.029 129.752 405.81 130.124C405.02 131.484 404.203 133.157 404.942 134.545L404.946 134.543C404.168 137.165 402.995 139.789 400.385 141.064C403.28 141.367 406.301 139.917 407.608 137.608C407.821 138.024 408.078 138.415 408.376 138.774C408.46 138.88 408.543 138.984 408.626 139.089L407.904 139.571L405.971 140.863C405.971 140.863 393.309 143.433 394.111 148.252C394.143 148.45 394.183 148.687 394.227 148.952L390.584 155.16L385.295 173.151C385.295 173.151 382.57 178.934 383.051 181.344C383.532 183.753 383.051 184.717 383.051 189.054C383.051 193.392 380.967 195.159 383.051 198.693C385.135 202.227 391.386 212.508 391.386 212.508L392.759 213.54C392.692 214.16 392.715 214.786 392.828 215.399C394.11 221.825 406.132 283.35 406.132 283.35C406.132 283.35 400.041 332.023 412.383 335.076C413.931 335.458 415.451 335.806 416.927 336.115L418.794 348.409L417.672 363.991C417.672 363.991 409.177 383.267 424.724 384.392C440.272 385.516 433.219 367.685 433.219 367.685C434.04 366.163 434.376 364.425 434.181 362.706C434.022 361.275 432.688 353.834 431.379 346.677C437.279 345.968 436.175 339.692 435.389 336.933C435.729 336.734 435.984 336.415 436.104 336.039C436.282 335.399 435.868 332.878 435.118 329.345C434.507 325.834 433.463 320.149 432.75 316.298L436.585 316.923L452.774 221.825C452.774 221.825 452.88 220.311 452.832 218.097C455.045 216.949 457.327 215.941 459.666 215.078C464.955 212.99 467.039 205.279 468.802 202.066C470.565 198.853 468.161 197.89 467.039 194.998ZM409.561 134.449C410.085 134.087 410.699 133.878 411.334 133.846C411.197 134.593 409.915 134.812 408.84 135.203C409.037 134.913 409.281 134.659 409.561 134.449ZM401.484 182.308C402.782 184.446 400.431 190.24 398.312 194.838C397.098 193.789 395.831 194.12 397.316 191.143C398.329 189.256 398.93 187.176 399.079 185.039C399.079 184.671 399.267 181.972 400.846 180.851C401.013 181.356 401.226 181.843 401.484 182.308ZM396.619 200.762C397.354 200.462 398.467 200.002 399.97 199.489C399.25 200.436 398.428 201.565 397.601 202.797C397.289 202.559 397.037 202.251 396.866 201.897C396.695 201.544 396.611 201.155 396.619 200.762ZM448.606 202.869C447.632 201.832 446.844 200.904 446.196 200.073C447.405 200.392 448.636 200.735 449.889 201.102C450.513 201.196 451.15 201.153 451.756 200.978C451.812 202.088 451.812 203.673 451.812 203.673L450.056 204.891C449.656 204.161 449.169 203.482 448.606 202.87V202.869ZM453.58 197.298C453.562 197.315 453.541 197.333 453.522 197.351C453.436 196.715 453.293 196.089 453.094 195.48C452.044 192.16 451.483 186.269 451.184 181.242L454.216 191.464C454.216 191.464 454.376 196.605 453.58 197.298Z" fill="#D0CDE1"/>
<path d="M391.32 155.076C391.32 155.076 374.876 126.75 374.362 123.66C373.848 120.569 365.626 114.904 365.626 114.904C362.817 112.089 358.208 111.198 353.358 111.244C355.184 109.73 348.662 108.712 348.155 107.694C347.641 106.664 346.099 106.664 344.044 105.119C341.988 103.574 336.858 104.861 336.857 104.861C336.086 103.235 335.549 101.507 335.263 99.7287C337.453 97.1321 338.653 93.8409 338.648 90.441C338.648 90.4041 338.646 90.3677 338.645 90.3308C338.776 90.5348 338.907 90.7401 339.038 90.9516C340 85.1726 341.7 80.369 338.461 75.0972C336.165 71.3608 332.572 68.6075 328.372 67.3672L325.288 69.8404L326.487 66.9557C325.478 66.8015 324.458 66.7424 323.438 66.7791L320.663 70.3554L321.811 66.9016C319.403 67.2016 317.083 67.9983 314.997 69.2417C312.912 70.4851 311.106 72.1482 309.693 74.126C306.161 79.2306 306.397 86.3265 309.871 91.4711C309.883 91.435 309.892 91.3998 309.904 91.3638C310.057 93.7706 310.811 96.1003 312.095 98.1397C313.379 100.179 315.154 101.863 317.256 103.037L318.128 110.034C317.343 110.765 316.335 111.211 315.267 111.299C313.726 111.299 312.184 115.419 312.184 115.419C312.184 115.419 311.31 115.861 310.368 117.947C307.943 119.603 300.543 124.802 297.798 128.435C296.174 129.236 294.429 131.017 294.712 134.99C295.226 142.2 294.712 175.676 294.712 175.676C294.712 175.676 290.088 204.002 291.629 206.062C293.171 208.122 291.115 214.818 291.115 214.818L292.657 215.161V216.878C292.657 216.878 288.02 238.42 295.226 237.478C307.045 235.933 298.309 218.423 298.309 218.423V216.42L300.365 216.878C300.365 216.878 301.393 209.667 303.448 209.152C304.163 208.973 305.002 207.048 305.793 204.615C306.254 208.411 306.531 210.697 306.531 210.697L309.747 209.981L310.642 213.273C310.863 213.397 311.094 213.502 311.333 213.586L310.642 217.393C310.642 217.393 310.128 221.513 310.642 224.088C310.901 225.387 320.44 253.145 329.833 280.345L329.655 286.92C329.655 286.92 325.031 292.07 326.058 295.675C327.086 299.28 323.489 329.151 323.489 329.151L320.406 344.087L321.182 344.326L320.469 346.943C319.856 347.253 319.31 347.683 318.864 348.207C314.753 352.842 309.615 366.232 309.615 366.232C309.615 366.232 300.365 380.138 314.753 379.623C329.142 379.108 330.169 373.958 330.169 373.958C330.169 373.958 332.225 360.567 332.225 360.052C332.225 359.537 331.197 354.243 331.197 354.243L330.798 353.802L331.077 347.377L333.766 348.207C333.766 348.207 336.336 334.816 338.391 333.271C339.11 332.731 341.021 326.716 343.203 318.99C345.434 325.427 347.594 347.683 348.294 349.703C348.046 350.043 347.827 350.404 347.641 350.782C345.331 355.225 342.757 359.524 339.933 363.657C339.933 363.657 323.489 373.443 339.933 376.018C339.933 376.018 349.183 376.533 353.807 373.443C358.432 370.353 370.765 365.717 370.765 364.687C370.765 363.657 367.682 348.516 364.599 350.164L362.533 345.403L364.599 344.602L351.589 286.075C351.896 284.828 352.123 283.562 352.266 282.285C352.266 279.588 358.92 227.072 360.613 213.752C368.065 215.868 374.876 200.397 374.876 200.397L376.565 197.35L378.987 198.852C378.987 198.852 381.042 193.702 384.126 193.187C387.209 192.672 392.861 165.376 392.861 161.771C392.814 159.456 392.289 157.177 391.32 155.076ZM367.378 195.427C366.872 194.622 366.285 193.871 365.626 193.187C366.97 189.68 368.002 186.061 368.71 182.371C369.737 176.706 367.168 158.166 367.168 158.166L367.123 156.907C369.645 160.225 372.821 164.649 372.821 165.891C372.821 166.491 372.96 167.082 373.227 167.618C373.495 168.155 373.883 168.621 374.362 168.981L371.279 179.796C371.279 179.796 369.223 184.947 368.71 187.522C368.402 189.048 368.23 190.6 368.196 192.157L368.924 192.609L367.378 195.427Z" fill="#D0CDE1"/>
<path d="M156.068 164.608L158.81 163.99L147.505 132.059L123.096 123.046C123.096 123.046 123.003 123.15 122.83 123.329C120.748 121.309 119.865 118.379 119.495 116.073C121.458 115.278 123.222 114.059 124.661 112.502C126.099 110.946 127.177 109.09 127.818 107.068C128.458 105.045 128.646 102.906 128.366 100.803C128.087 98.7001 127.348 96.6847 126.201 94.9009C128.213 94.417 128.931 92.5883 129.606 90.4076C129.188 90.284 128.762 90.1909 128.33 90.1292C128.647 89.4183 128.963 88.7075 129.279 87.9966C128.723 87.9466 128.167 87.8965 127.612 87.8465C127.754 87.182 127.896 86.5175 128.038 85.8529C127.329 86.3434 126.62 86.8339 125.911 87.3244C126.152 86.6268 126.212 85.8792 126.085 85.152C125.958 84.4248 125.649 83.7418 125.187 83.1673C124.246 82.0271 123.018 81.1594 121.63 80.6536C118.916 79.5835 115.961 79.2836 113.088 79.7868C110.215 80.29 107.536 81.5769 105.345 83.5062L105.191 82.906C100.853 86.2484 98.0144 91.1788 97.2977 96.6158C96.6171 101.99 99.1932 107.463 102.542 111.716C102.513 111.53 102.483 111.345 102.452 111.16C102.597 111.36 102.747 111.556 102.901 111.748L103.312 127.424L102.281 128.309C102.28 128.31 84.9856 136.152 84.3115 145.518L84.3095 145.525C83.2714 150.084 82.7576 173.775 82.7576 173.775H84.1806L82.7576 183.045L73.5079 219.097C73.5079 219.097 61.6889 234.547 71.9663 237.637C78.3527 239.557 80.1748 232.131 80.6395 226.232C81.0095 227.695 82.1162 228.683 84.2992 228.882C84.471 228.897 84.6544 228.91 84.8318 228.925C79.9723 241.511 83.2714 282.444 83.2714 282.444C80.7021 287.594 111.02 323.13 111.02 323.13L112.846 322.154L113.241 322.946C112.225 323.043 111.534 323.13 111.534 323.13V339.095C111.534 339.095 106.909 355.061 113.076 358.151C114.671 358.951 116.336 358.369 117.927 357.07C117.623 361.997 117.187 369.35 117.187 371.026C117.187 373.601 123.867 378.237 123.867 378.237C123.867 378.237 125.409 383.902 137.742 383.902C150.075 383.902 140.825 368.966 140.825 368.966L134.145 354.031C134.145 354.031 133.645 354.276 132.132 353.042L132.674 347.069L135.686 347.336L139.797 287.079C139.797 287.079 143.394 233.517 143.908 225.277C144.029 222.635 143.966 219.988 143.722 217.355L158.81 186.135L156.068 164.608ZM144.936 184.59L143.394 189.975V178.067L144.936 184.59ZM80.7828 222.783C80.7955 220.896 80.7021 219.612 80.7021 219.612L90.7482 199.474L90.4656 205.706C90.4656 205.706 82.4199 215.906 80.7828 222.783ZM104.34 280.898L114.104 246.392L119.756 288.109L119.351 303.275C118.663 301.881 118.11 300.424 117.701 298.924C116.159 292.744 104.34 280.898 104.34 280.898Z" fill="#D0CDE1"/>
<path d="M243.4 362.867C238.585 360.88 229.239 356.622 228.106 354.351C226.973 352.08 221.309 334.481 221.309 334.481L219.85 334.587C219.662 326.593 218.859 295.607 217.627 291.903C217.627 291.903 223.575 242.796 211.679 223.211L209.536 214.533C210.239 211.054 210.149 202.998 209.697 201.638C209.13 199.935 216.211 194.541 214.228 191.135C212.246 187.729 206.865 176.091 206.865 176.091C206.865 176.091 207.431 168.711 199.784 161.898C199.784 161.898 197.549 149.219 187.479 149.03C186.118 146.649 184.213 142.863 184.773 141.177C185.374 139.372 187.669 133.745 188.965 130.596C189.654 130.284 190.315 129.915 190.942 129.493C198.951 125.896 204.597 117.251 204.597 107.152C204.597 96.3408 198.129 87.1914 189.217 84.1234C189.614 83.0747 189.776 81.9514 189.692 80.8329C189.609 79.7144 189.281 78.628 188.732 77.6504C188.183 76.6729 187.427 75.828 186.517 75.1755C185.607 74.523 184.564 74.0788 183.464 73.8742C182.364 73.6697 181.232 73.7099 180.149 73.9919C179.066 74.2738 178.057 74.7908 177.195 75.5062C176.333 76.2215 175.639 77.1179 175.16 78.1319C174.682 79.1459 174.432 80.2528 174.427 81.3744C173.937 80.21 173.742 78.9421 173.86 77.6839C173.978 76.4257 174.405 75.2162 175.103 74.1636C175.8 73.111 176.747 72.248 177.859 71.6515C178.971 71.0551 180.213 70.7438 181.473 70.7455C181.97 70.7462 182.465 70.7951 182.952 70.8916C181.273 70.0913 179.36 69.9321 177.572 70.4438C175.784 70.9556 174.244 72.1032 173.24 73.6716C172.236 75.24 171.837 77.1215 172.118 78.9635C172.399 80.8056 173.341 82.4818 174.766 83.6779C174.854 83.9582 174.958 84.2332 175.078 84.5014C166.692 87.8931 160.709 96.754 160.709 107.152C160.709 116.797 165.858 125.117 173.297 128.979C173.257 132.116 172.481 137.405 168.164 140.629C165.934 139.608 162.839 138.487 160.853 138.995C159.826 138.193 158.276 137.928 156.168 140.041C151.92 144.299 148.238 155.37 148.238 162.182C148.238 168.995 149.087 208.45 149.087 208.45C149.087 208.45 144.556 210.153 147.671 212.708C148.315 213.245 149.122 213.546 149.959 213.56L153.052 236.552C153.052 236.552 151.07 258.692 158.717 258.976C159.316 259.009 159.912 258.863 160.429 258.555L154.752 284.239C154.752 284.239 141.724 292.755 131.528 309.502C126.276 318.128 123.658 323.435 122.35 326.559L120.482 325.398L113.968 337.887C113.968 337.887 99.5234 346.687 102.639 353.216C105.754 359.744 108.587 361.447 108.587 361.447L110.569 360.596L114.251 367.408C114.251 367.408 123.881 381.317 139.458 374.221C140.189 373.236 140.584 372.042 140.584 370.815C140.584 369.587 140.189 368.393 139.458 367.408C136.909 363.718 130.395 355.77 130.395 355.77L134.643 334.197L133.764 333.651L160.699 300.987C160.699 300.987 168.63 296.161 171.462 291.903C174.294 287.645 191.854 243.648 191.854 243.648L201.767 289.632C201.767 289.632 201.2 306.38 203.749 317.166C205.138 323.217 206.045 329.369 206.459 335.564L205.732 335.617L207.431 348.39C207.431 348.39 200.067 366.557 205.165 367.976C208.792 368.915 212.484 369.579 216.211 369.963L216.777 367.976C216.777 367.976 238.585 379.898 246.516 371.098C246.516 371.098 248.215 364.854 243.4 362.867ZM165.797 223.494C166.647 224.346 166.364 228.32 166.364 228.32L164.664 239.39L162.967 247.069C162.733 243.441 162.259 239.833 161.549 236.268L160.765 215.053C160.919 215.15 161.088 215.221 161.266 215.263C161.832 215.263 161.549 210.437 161.549 210.437C161.549 210.437 161.88 209.575 162.292 208.215C163.393 211.519 164.737 213.674 166.364 214.127L166.647 217.817C166.647 217.817 162.965 219.52 166.364 219.52C166.561 219.513 166.757 219.484 166.947 219.434L166.647 220.94C166.647 220.94 164.948 222.643 165.797 223.494Z" fill="#D0CDE1"/>
<path d="M238.559 376.09C364.298 376.09 466.229 374.406 466.229 372.329C466.229 370.251 364.298 368.567 238.559 368.567C112.82 368.567 10.8887 370.251 10.8887 372.329C10.8887 374.406 112.82 376.09 238.559 376.09Z" fill="#3F3D56"/>
<path d="M318.242 391.761C456.554 391.761 568.678 387.411 568.678 382.045C568.678 376.679 456.554 372.329 318.242 372.329C179.93 372.329 67.8062 376.679 67.8062 382.045C67.8062 387.411 179.93 391.761 318.242 391.761Z" fill="#3F3D56"/>
<path d="M272.022 406.179C339.9 406.179 394.926 401.829 394.926 396.463C394.926 391.097 339.9 386.747 272.022 386.747C204.143 386.747 149.117 391.097 149.117 396.463C149.117 401.829 204.143 406.179 272.022 406.179Z" fill="#3F3D56"/>
<path d="M449.654 413.075C479.88 413.075 504.383 410.83 504.383 408.06C504.383 405.29 479.88 403.045 449.654 403.045C419.429 403.045 394.926 405.29 394.926 408.06C394.926 410.83 419.429 413.075 449.654 413.075Z" fill="#3F3D56"/>
<path d="M374.598 430C388.934 430 400.555 427.755 400.555 424.985C400.555 422.215 388.934 419.97 374.598 419.97C360.262 419.97 348.641 422.215 348.641 424.985C348.641 427.755 360.262 430 374.598 430Z" fill="#3F3D56"/>
<path d="M163.19 408.687C177.526 408.687 189.147 406.442 189.147 403.672C189.147 400.902 177.526 398.657 163.19 398.657C148.855 398.657 137.233 400.902 137.233 403.672C137.233 406.442 148.855 408.687 163.19 408.687Z" fill="#3F3D56"/>
<path d="M291.411 346.94L293.913 364.493L306.422 363.239L305.171 345.06L291.411 346.94Z" fill="#FFB8B8"/>
<path d="M231.992 346.94L229.49 364.493L216.98 363.239L218.231 345.06L231.992 346.94Z" fill="#FFB8B8"/>
<path d="M213.853 165.15C213.853 165.15 202.595 178.314 205.097 199.001C207.599 219.687 211.977 266.702 211.977 266.702L215.104 350.075L235.119 348.821L238.246 277.986L248.254 220.941L275.149 287.389C275.149 287.389 288.284 349.448 288.909 349.448C289.535 349.448 307.673 347.568 307.673 347.568L298.917 274.225C298.917 274.225 285.156 167.658 277.025 165.777C268.894 163.897 213.853 165.15 213.853 165.15Z" fill="#2F2E41"/>
<path d="M307.673 360.732C307.673 360.732 296.415 353.209 292.036 361.986C287.658 370.762 291.411 377.03 291.411 377.03C291.411 377.03 295.164 379.538 293.287 382.045C291.411 384.553 290.786 400.851 307.048 398.344C323.31 395.836 315.179 378.911 315.179 378.911L307.673 360.732Z" fill="#2F2E41"/>
<path d="M215.729 360.732C215.729 360.732 226.988 353.209 231.366 361.986C235.744 370.762 231.991 377.03 231.991 377.03C231.991 377.03 228.239 379.538 230.115 382.045C231.991 384.553 232.617 400.851 216.355 398.344C200.093 395.836 208.224 378.911 208.224 378.911L215.729 360.732Z" fill="#2F2E41"/>
<path d="M229.177 43.2256C229.177 43.2256 234.806 58.8972 230.428 67.6733C226.049 76.4494 237.308 86.4792 237.308 86.4792C237.308 86.4792 266.705 71.4345 262.952 63.9121C259.199 56.3897 252.944 46.3599 254.195 40.0913L229.177 43.2256Z" fill="#FFB8B8"/>
<path d="M240.123 49.1807C251.177 49.1807 260.138 40.1998 260.138 29.1211C260.138 18.0425 251.177 9.06152 240.123 9.06152C229.069 9.06152 220.108 18.0425 220.108 29.1211C220.108 40.1998 229.069 49.1807 240.123 49.1807Z" fill="#FFB8B8"/>
<path d="M225.737 66.733C225.737 66.733 245.82 83.4818 260.797 59.7493L276.4 68.6136L284.531 163.897C284.531 163.897 238.872 190.225 216.98 167.658L220.108 79.2703L225.737 66.733Z" fill="#D0CDE1"/>
<path d="M232.044 57.3503L203.846 76.1355L213.853 122.523L200.718 194.613L221.984 162.643L232.044 57.3503Z" fill="#575A89"/>
<path d="M256.965 52.1218L263.891 56.7032L292.037 66.733L287.658 144.464L299.542 194.613L282.655 203.389C282.655 203.389 279.527 179.568 260.138 167.658C240.748 155.748 252.541 55.6896 256.965 52.1218Z" fill="#575A89"/>
<path d="M210.1 173.927L218.231 179.568C218.231 179.568 207.911 190.538 206.035 188.658C205.492 188.135 205.07 187.499 204.8 186.795C204.53 186.091 204.417 185.336 204.471 184.583L202.595 180.195L210.1 173.927Z" fill="#FFB8B8"/>
<path d="M264.153 172.707L261.388 177.061C261.388 177.061 253.257 180.822 255.134 183.33C257.01 185.837 272.647 191.479 275.774 185.837L278.901 180.195L264.153 172.707Z" fill="#FFB8B8"/>
<path d="M207.599 75.509L203.22 76.1359L196.027 122.837C196.027 122.837 193.213 131.3 196.34 151.359C199.468 171.419 202.564 184.481 202.564 184.481L216.355 174.553L210.1 158.255L218.232 98.703L207.599 75.509Z" fill="#575A89"/>
<path d="M282.029 65.4792L292.037 66.733C292.037 66.733 303.295 78.6434 305.171 91.1806C307.048 103.718 306.422 139.449 306.422 139.449L277.651 185.21L262.014 173.927L283.906 135.061L273.273 88.6732L282.029 65.4792Z" fill="#575A89"/>
<path d="M259.209 10.9784C256.182 6.05251 251.445 2.4227 245.908 0.787533L241.842 4.04804L243.423 0.245025C242.093 0.0417439 240.748 -0.036202 239.403 0.0122089L235.745 4.72701L237.259 0.173707C234.084 0.569138 231.025 1.61959 228.276 3.25882C225.526 4.89805 223.145 7.0905 221.283 9.69791C216.626 16.4276 215.84 25.7866 220.42 32.5689C221.678 28.6964 223.204 25.0627 224.461 21.1902C225.449 21.3252 226.451 21.3301 227.44 21.2047L228.97 17.6274L229.397 21.0534C234.139 20.6394 241.171 19.7305 245.666 18.8977L245.229 16.2695L247.844 18.4535C249.221 18.1358 250.039 17.8477 249.971 17.6274C253.314 23.0288 256.627 26.4787 259.969 31.88C261.238 24.2613 263.479 17.9284 259.209 10.9784Z" fill="#2F2E41"/>
<path d="M258.101 31.2069C258.849 31.2069 259.455 29.991 259.455 28.491C259.455 26.9911 258.849 25.7751 258.101 25.7751C257.352 25.7751 256.746 26.9911 256.746 28.491C256.746 29.991 257.352 31.2069 258.101 31.2069Z" fill="#FFB8B8"/>
<path d="M474.59 383.036C475.167 402.818 463.634 410.068 449.16 410.492C448.823 410.502 448.489 410.508 448.156 410.51C447.484 410.515 446.82 410.504 446.162 410.476C433.071 409.932 422.71 402.968 422.174 384.57C421.619 365.53 445.198 340.792 446.967 338.962L446.971 338.961C447.038 338.891 447.072 338.856 447.072 338.856C447.072 338.856 474.014 363.254 474.59 383.036Z" fill="#00BFA6"/>
<path d="M448.118 407.494L457.312 393.79L448.136 408.968L448.156 410.51C447.484 410.515 446.82 410.504 446.162 410.476L446.618 390.655L446.605 390.503L446.622 390.473L446.665 388.6L436.597 373.949L446.654 387.198L446.689 387.594L447.034 372.619L438.337 357.428L447.059 369.988L446.967 338.962L446.968 338.859L446.971 338.961L447.548 363.413L455.474 353.48L447.574 365.519L447.747 378.915L455.04 365.841L447.774 380.884L447.87 388.332L458.477 370.122L447.902 390.931L448.118 407.494Z" fill="#3F3D56"/>
<path d="M139.34 353.573C139.916 373.356 128.383 380.606 113.909 381.029C113.573 381.039 113.238 381.045 112.905 381.048C112.234 381.053 111.569 381.041 110.911 381.014C97.8209 380.469 87.4593 373.505 86.9232 355.107C86.3684 336.068 109.948 311.33 111.717 309.5L111.72 309.498C111.787 309.428 111.822 309.394 111.822 309.394C111.822 309.394 138.763 333.792 139.34 353.573Z" fill="#00BFA6"/>
<path d="M112.867 378.031L122.061 364.328L112.886 379.505L112.905 381.047C112.234 381.053 111.569 381.041 110.911 381.014L111.367 361.193L111.355 361.04L111.371 361.01L111.415 359.137L101.346 344.486L111.403 357.736L111.439 358.131L111.783 343.156L103.086 327.966L111.808 340.525L111.717 309.5L111.717 309.396L111.72 309.498L112.297 333.95L120.223 324.018L112.323 336.057L112.496 349.452L119.79 336.379L112.523 351.421L112.62 358.87L123.226 340.659L112.652 361.468L112.867 378.031Z" fill="#3F3D56"/>
<path d="M389.851 410.925C390.189 422.537 383.419 426.793 374.923 427.041C374.726 427.047 374.53 427.051 374.334 427.052C373.94 427.055 373.55 427.048 373.164 427.032C365.48 426.712 359.398 422.625 359.083 411.826C358.758 400.65 372.598 386.129 373.637 385.055L373.639 385.054C373.678 385.013 373.698 384.993 373.698 384.993C373.698 384.993 389.512 399.314 389.851 410.925Z" fill="#00BFA6"/>
<path d="M374.312 425.282L379.709 417.238L374.323 426.147L374.334 427.052C373.94 427.055 373.55 427.048 373.164 427.032L373.431 415.398L373.424 415.308L373.434 415.291L373.46 414.191L367.549 405.591L373.453 413.369L373.473 413.601L373.676 404.811L368.571 395.894L373.69 403.266L373.637 385.055L373.637 384.995L373.639 385.054L373.977 399.407L378.63 393.577L373.993 400.644L374.094 408.506L378.375 400.833L374.11 409.662L374.166 414.034L380.392 403.345L374.185 415.559L374.312 425.282Z" fill="#3F3D56"/>
<path d="M599.945 32.0872C599.963 32.03 599.982 31.9721 600 31.9148C599.992 31.9399 599.983 31.9641 599.975 31.9893L599.945 32.0872Z" fill="#2F2E41"/>
<path d="M512.541 364.714L558.868 295.667L512.635 372.142L512.732 379.912C509.35 379.938 506.001 379.881 502.684 379.742L504.982 279.871L504.919 279.1L505.004 278.951L505.224 269.514L454.49 195.691L505.164 262.451L505.344 264.446L507.079 188.989L463.259 112.451L507.204 175.733L506.745 19.4058L506.746 18.8855L506.761 19.3972L509.67 142.604L549.607 92.5574L509.801 153.218L510.673 220.713L547.423 154.841L510.808 230.635L511.293 268.166L564.737 176.407L511.455 281.259L512.541 364.714Z" fill="#3F3D56"/>
<path d="M39.5016 362.038L71.0258 315.053L39.566 367.092L39.6318 372.379C37.3304 372.397 35.0514 372.358 32.7947 372.264L34.3583 304.304L34.3154 303.78L34.3731 303.679L34.5228 297.257L0 247.022L34.482 292.45L34.6044 293.808L35.7854 242.462L5.967 190.379L35.8703 233.441L35.5582 127.065L35.5588 126.711L35.569 127.059L37.5484 210.898L64.7243 176.843L37.6374 218.121L38.2305 264.049L63.2379 219.225L38.3224 270.801L38.6526 296.339L75.0201 233.9L38.7631 305.248L39.5016 362.038Z" fill="#3F3D56"/>
</g>
</g>
<defs>
<clipPath id="clip0">
<rect width="600" height="430" fill="white"/>
</clipPath>
</defs>
</svg>
