<svg width="293" height="195" viewBox="0 0 293 195" fill="none" xmlns="http://www.w3.org/2000/svg">
<path d="M202.962 88.4L204.782 87.6798C204.957 87.6104 205.128 87.5357 205.311 87.4637C201.941 86.2114 199.095 83.839 197.238 80.7365C195.382 77.6341 194.626 73.9863 195.096 70.393C195.566 66.7997 197.233 63.4746 199.823 60.9647C202.413 58.4547 205.773 56.9092 209.348 56.5822L208.08 63.0375L212.895 56.6569H212.937C217.093 57.2337 220.852 59.4531 223.387 62.8272C225.922 66.2012 227.026 70.4536 226.456 74.6491C226.416 74.9505 226.353 75.2439 226.297 75.54C227.779 74.3583 229.169 73.0539 230.211 71.5388C232.324 68.4605 233.041 64.6674 233.77 60.0233C235.215 50.8257 236.518 41.5269 237.691 32.2333C234.089 31.1361 230.992 28.7776 228.958 25.5818C226.923 22.386 226.085 18.5626 226.593 14.7986C226.659 14.3132 226.752 13.841 226.857 13.3742C226.884 13.2568 226.91 13.1395 226.939 13.0248C227.053 12.574 227.18 12.1311 227.328 11.691C227.351 11.619 227.383 11.5523 227.407 11.483C227.539 11.1175 227.671 10.7574 227.843 10.416C227.901 10.2826 227.959 10.1492 228.02 10.0238C228.202 9.64238 228.395 9.26894 228.607 8.90616C228.678 8.78612 228.755 8.67142 228.826 8.55138C228.99 8.28463 229.161 8.01788 229.339 7.76981C229.434 7.63643 229.526 7.50306 229.624 7.37235L229.695 7.26832C231.939 4.30387 235.141 2.22687 238.744 1.3984C242.347 0.569922 246.124 1.04236 249.418 2.73359L247.77 11.1335L252.526 4.82757C255.084 7.01561 256.883 9.97204 257.659 13.2651C258.435 16.5582 258.147 20.0154 256.838 23.1319H256.857C256.812 23.2386 256.757 23.3399 256.712 23.4466C256.624 23.644 256.535 23.8388 256.447 24.0335C256.326 24.2816 256.183 24.5243 256.064 24.7644C255.964 24.9458 255.866 25.1272 255.758 25.2979C255.602 25.5646 255.433 25.8047 255.264 26.0528C255.163 26.1968 255.071 26.3462 254.968 26.4876C254.703 26.8584 254.407 27.2131 254.106 27.5546C254 27.6746 253.887 27.784 253.776 27.9013C253.562 28.1307 253.348 28.3575 253.121 28.5736C252.98 28.7069 252.833 28.8403 252.687 28.963C252.478 29.1497 252.264 29.3311 252.045 29.4965C251.889 29.6219 251.731 29.7419 251.572 29.8593C251.342 30.0273 251.11 30.1847 250.874 30.3421C250.716 30.4461 250.557 30.5502 250.396 30.6489C250.132 30.8116 249.854 30.961 249.577 31.1077C249.437 31.1797 249.313 31.2597 249.157 31.3291C248.739 31.5345 248.311 31.7239 247.875 31.8919C247.793 31.9239 247.706 31.9479 247.624 31.9773C247.26 32.1106 246.892 32.244 246.52 32.3374C246.359 32.3827 246.195 32.4201 246.031 32.4601C245.727 32.5348 245.42 32.6041 245.111 32.6628C244.935 32.6948 244.753 32.7242 244.564 32.7508C244.26 32.7962 243.954 32.8309 243.645 32.8575C243.462 32.8735 243.283 32.8895 243.098 32.9002C242.765 32.9162 242.429 32.9189 242.094 32.9162C242.072 32.9149 242.05 32.9149 242.028 32.9162C241.531 36.8285 241.009 40.7409 240.463 44.6532C241.745 42.9068 243.366 41.443 245.228 40.3517C247.09 39.2604 249.153 38.5645 251.291 38.3067C253.428 38.049 255.596 38.2347 257.66 38.8527C259.724 39.4706 261.641 40.5077 263.294 41.9003L259.151 48.9905L265.812 44.5651C268.331 47.9303 269.424 52.1669 268.851 56.3448C268.656 57.8117 268.255 59.2432 267.662 60.5968C266.39 63.5275 264.275 66.0047 261.592 67.7069C258.908 69.4092 255.779 70.2579 252.612 70.1429C249.445 70.0278 246.385 68.9544 243.829 67.0619C241.273 65.1694 239.34 62.5451 238.281 59.5298C238.22 59.9246 238.162 60.33 238.101 60.7195C237.456 64.8141 236.655 69.9116 233.812 74.0569C231.886 76.8738 229.233 78.9544 226.654 80.7843C224.977 81.9758 223.261 83.1113 221.506 84.1907C219.665 85.9147 217.443 87.171 215.024 87.8558C212.206 89.3123 209.326 90.6291 206.386 91.8064L204.55 92.5319C202.898 93.1828 201.207 93.8497 199.529 94.5592C199.793 94.5832 200.058 94.6046 200.322 94.6393C203.647 95.1002 206.741 96.616 209.156 98.9678C211.572 101.32 213.185 104.386 213.761 107.723L202.581 113.888L213.727 113.384C213.281 115.879 212.246 118.228 210.709 120.234C208.189 123.527 204.495 125.697 200.413 126.282C196.332 126.867 192.185 125.821 188.856 123.365L189.411 124.408C189.781 125.097 190.146 125.782 190.5 126.462C195.344 135.729 195.695 143.732 191.491 149L188.056 146.212C192.149 141.086 188.901 132.936 186.602 128.535C186.253 127.868 185.894 127.201 185.545 126.518C182.435 120.695 178.907 114.096 180.321 107.072C182.435 96.4825 193.811 92.0011 202.962 88.4Z" fill="#F2F2F2"/>
<path d="M71.2067 138.505L69.7955 137.94C69.6592 137.887 69.5333 137.825 69.3916 137.771C72.0026 136.788 74.2084 134.928 75.6465 132.495C77.0847 130.063 77.6697 127.204 77.3054 124.387C76.941 121.57 75.6491 118.964 73.6418 116.996C71.6345 115.028 69.0313 113.816 66.2599 113.558L67.2435 118.619L63.5137 113.617H63.4796C61.8833 113.84 60.3456 114.381 58.9543 115.211C57.563 116.04 56.3454 117.141 55.3711 118.451C54.3968 119.761 53.6849 121.255 53.276 122.846C52.8671 124.437 52.7692 126.094 52.988 127.724C53.0195 127.962 53.0693 128.19 53.1113 128.423C51.9541 127.535 50.9323 126.476 50.0792 125.282C48.4452 122.872 47.8839 119.894 47.3173 116.255C46.2078 109.043 45.2006 101.754 44.2957 94.4756C47.0874 93.614 49.4866 91.764 51.0621 89.2583C52.6376 86.7525 53.286 83.7552 52.891 80.805C52.8385 80.4248 52.7677 80.0552 52.6838 79.6884L52.6208 79.4206C52.5316 79.0671 52.4346 78.719 52.3192 78.3816C52.3008 78.3253 52.2772 78.2718 52.2562 78.2182C52.1539 77.9317 52.0411 77.6505 51.9205 77.3747C51.8733 77.2729 51.8287 77.1685 51.7815 77.0667C51.6398 76.7695 51.4903 76.4776 51.3277 76.1937C51.2726 76.0973 51.2123 76.0063 51.1572 75.9259C51.0287 75.7171 50.8949 75.5109 50.7586 75.3127C50.6851 75.2083 50.6143 75.1012 50.5382 74.9994L50.4831 74.9191C48.7439 72.5952 46.2627 70.9662 43.4701 70.3147C40.6775 69.6631 37.7496 70.0302 35.1943 71.3521L36.4742 77.9397L32.7838 72.9964C30.8008 74.712 29.4067 77.0297 28.8051 79.6114C28.2035 82.1931 28.4258 84.9035 29.4396 87.3471H29.4265C29.4606 87.4301 29.5026 87.5104 29.5393 87.5934C29.6075 87.7488 29.6757 87.9014 29.7491 88.054C29.8436 88.2468 29.9432 88.437 30.0481 88.6244C30.1242 88.769 30.2003 88.911 30.2842 89.0502C30.4049 89.251 30.5465 89.4465 30.6671 89.642C30.7458 89.7545 30.8167 89.8723 30.898 89.9821C31.1078 90.2713 31.3307 90.5498 31.5642 90.8203C31.6455 90.914 31.7347 90.9997 31.8265 91.0881C31.9917 91.2675 32.1596 91.4442 32.3353 91.6236C32.4429 91.7308 32.5583 91.8298 32.671 91.9289C32.8337 92.0771 32.9989 92.219 33.1668 92.3547C33.2874 92.4511 33.4107 92.5448 33.534 92.6386C33.7123 92.7698 33.8933 92.9063 34.0743 93.0161C34.1976 93.0992 34.3208 93.1795 34.4467 93.2572C34.654 93.3857 34.8664 93.5008 35.0815 93.616C35.1916 93.6749 35.2966 93.7365 35.4067 93.7927C35.732 93.9534 36.0625 94.1007 36.4008 94.2319C36.4638 94.2587 36.532 94.2747 36.5949 94.2988C36.8756 94.4033 37.1614 94.4997 37.4526 94.5827C37.5759 94.6175 37.7149 94.647 37.8303 94.6764C38.0663 94.7353 38.3024 94.7916 38.5437 94.8371L38.966 94.9067C39.2021 94.9415 39.4407 94.9683 39.6794 94.9897C39.8211 95.0031 39.9601 95.0138 40.1043 95.0219C40.3666 95.0353 40.6289 95.0379 40.8912 95.0353H40.941C41.3257 98.1095 41.7297 101.181 42.1528 104.25C41.1612 102.879 39.9056 101.729 38.463 100.871C37.0204 100.013 35.4213 99.4652 33.7638 99.2611C32.1064 99.0569 30.4255 99.2008 28.8245 99.6838C27.2235 100.167 25.7361 100.979 24.4535 102.07L27.6377 107.597L22.4758 104.129C21.5076 105.435 20.8008 106.923 20.3958 108.508C19.9907 110.092 19.8954 111.743 20.1152 113.365C20.2675 114.517 20.5793 115.64 21.0411 116.702C22.0271 119 23.6666 120.942 25.7469 122.276C27.8273 123.611 30.2525 124.276 32.7078 124.186C35.1631 124.096 37.5353 123.254 39.5165 121.771C41.4977 120.287 42.9965 118.23 43.8184 115.866C43.8656 116.174 43.9102 116.488 43.9574 116.798C44.4557 120.012 45.0774 124.007 47.2806 127.263C48.7756 129.47 50.832 131.101 52.8306 132.536C54.1316 133.472 55.4614 134.364 56.8201 135.214C58.2485 136.566 59.9709 137.551 61.8455 138.09C64.0278 139.231 66.2625 140.27 68.5444 141.186L69.966 141.756C71.246 142.265 72.5575 142.787 73.8505 143.344C73.646 143.363 73.4388 143.379 73.2315 143.408C70.6553 143.769 68.2579 144.956 66.3853 146.798C64.5127 148.64 63.2619 151.042 62.8134 153.657L71.469 158.477L62.8291 158.083C63.2095 160.164 64.1001 162.112 65.4178 163.747C66.7355 165.381 68.4373 166.648 70.3644 167.428C72.2914 168.209 74.3808 168.479 76.4376 168.212C78.4943 167.945 80.4513 167.151 82.1258 165.903C81.9815 166.17 81.8399 166.438 81.6956 166.719C81.4097 167.255 81.1265 167.79 80.8511 168.326C77.0977 175.591 76.8249 181.868 80.0852 186L82.7422 183.815C79.5685 179.798 82.0864 173.406 83.87 169.954C84.1323 169.432 84.4182 168.904 84.6989 168.374C87.1093 163.822 89.8424 158.635 88.7539 153.126C87.125 144.841 78.299 141.338 71.2067 138.505Z" fill="#F2F2F2"/>
<path d="M146.5 195C227.41 195 293 192.314 293 189C293 185.686 227.41 183 146.5 183C65.5903 183 0 185.686 0 189C0 192.314 65.5903 195 146.5 195Z" fill="#3F3D56"/>
<path opacity="0.1" d="M146.5 195C227.41 195 293 192.314 293 189C293 185.686 227.41 183 146.5 183C65.5903 183 0 185.686 0 189C0 192.314 65.5903 195 146.5 195Z" fill="black"/>
<path d="M146.5 192C227.41 192 293 189.09 293 185.5C293 181.91 227.41 179 146.5 179C65.5903 179 0 181.91 0 185.5C0 189.09 65.5903 192 146.5 192Z" fill="#3F3D56"/>
<path d="M22.4053 183C21.5623 181.547 22.5178 179.766 23.6081 178.469C24.6985 177.171 26.0277 175.831 25.9996 174.172C25.9602 171.798 23.2737 170.397 21.1295 169.139C19.5386 168.205 18.0709 167.097 16.7569 165.839C16.2077 165.355 15.7531 164.783 15.4136 164.151C14.9696 163.223 14.9837 162.168 15.0118 161.15C15.1055 157.763 15.2834 154.38 15.5457 151" stroke="#3F3D56" stroke-width="4" stroke-miterlimit="10"/>
<path d="M12.0035 150.822C12.0305 150.151 12.2049 149.498 12.5108 148.924C12.8166 148.351 13.244 147.874 13.7535 147.539L14.5385 149.313L14.516 147.165C14.8903 147.037 15.2808 146.983 15.671 147.005C16.3617 147.043 17.027 147.315 17.5828 147.785C18.1386 148.256 18.56 148.904 18.7939 149.647C19.0277 150.391 19.0635 151.198 18.8967 151.965C18.7299 152.732 18.368 153.425 17.8566 153.957C17.3453 154.49 16.7075 154.837 16.0237 154.955C15.3399 155.073 14.6408 154.957 14.0145 154.622C13.3883 154.286 12.8631 153.746 12.5052 153.07C12.1473 152.394 11.9727 151.611 12.0035 150.822Z" fill="#406043"/>
<path d="M18.4418 176.088C18.8393 176.776 19.4886 177.329 20.2876 177.661C21.0865 177.993 21.9897 178.084 22.8549 177.921C23.7201 177.757 24.4981 177.348 25.0666 176.758C25.635 176.168 25.9616 175.43 25.9948 174.661C26.0232 174.18 25.9349 173.699 25.7354 173.25C25.4487 172.586 24.9347 172.014 24.2626 171.612C23.5906 171.21 22.7928 170.996 21.9768 171C21.1608 171.004 20.3659 171.226 19.6992 171.635C19.0324 172.044 18.5259 172.621 18.248 173.288L20.7476 175.055L18 174.5C17.9985 175.052 18.15 175.597 18.4418 176.088Z" fill="#406043"/>
<path d="M20.2892 168.989C21.1511 169.064 22.0061 168.763 22.6851 168.145C23.364 167.527 23.8174 166.637 23.9556 165.651C24.0938 164.665 23.9067 163.655 23.4313 162.821C22.9559 161.987 22.2269 161.39 21.3884 161.147L21.4057 162.795L20.6219 161.004C19.7051 160.955 18.8089 161.328 18.1304 162.042C17.4518 162.756 17.0466 163.752 17.0038 164.811C16.961 165.871 17.2841 166.906 17.9021 167.69C18.52 168.474 19.3823 168.942 20.299 168.991L20.2892 168.989Z" fill="#406043"/>
<path d="M11.3381 162.996C11.7969 163.02 12.2554 162.941 12.6875 162.763C13.1196 162.586 13.5168 162.312 13.8565 161.959C14.1962 161.605 14.4717 161.178 14.6672 160.703C14.8627 160.228 14.9745 159.713 14.9961 159.189C15.0177 158.664 14.9488 158.139 14.7932 157.645C14.6377 157.151 14.3985 156.697 14.0894 156.308C13.7803 155.92 13.4074 155.605 12.9918 155.381C12.5763 155.157 12.1263 155.03 11.6675 155.005C11.0126 154.968 10.3619 155.144 9.79112 155.513L10.4099 157.453L9.13488 156.055C8.45293 156.769 8.04645 157.764 8.00455 158.82C7.98764 159.19 8.0179 159.56 8.09438 159.919C8.26854 160.766 8.67956 161.524 9.26501 162.08C9.85046 162.635 10.5784 162.957 11.3381 162.996Z" fill="#406043"/>
<path opacity="0.1" d="M12.4031 151.353C13.2245 151.442 14.0231 151.694 14.8471 151.744C15.671 151.794 16.5761 151.6 17.0984 150.971C17.3798 150.629 17.5192 150.2 17.755 149.831C17.9808 149.486 18.2889 149.201 18.6525 149C18.8672 149.442 18.9851 149.923 18.9987 150.412C19.0122 150.901 18.9211 151.388 18.7312 151.84C18.5414 152.293 18.2569 152.701 17.8964 153.038C17.5359 153.376 17.1074 153.635 16.6386 153.799C16.1698 153.962 15.6713 154.027 15.1753 153.989C14.6794 153.952 14.1971 153.811 13.7597 153.578C13.3223 153.345 12.9396 153.024 12.6365 152.636C12.3333 152.248 12.1165 151.801 12 151.325C12.1344 151.33 12.2687 151.34 12.4031 151.353Z" fill="black"/>
<path opacity="0.1" d="M11.2801 162.995C11.8922 163.031 12.5019 162.879 13.0495 162.553C13.5972 162.227 14.064 161.738 14.4042 161.133C14.7445 160.529 14.9466 159.831 14.9908 159.106C15.035 158.382 14.9197 157.656 14.6562 157C14.3745 157.225 14.1323 157.514 13.943 157.848C13.6901 158.301 13.5359 158.822 13.24 159.239C12.6861 160.009 11.7429 160.261 10.8855 160.213C10.0282 160.165 9.20125 159.88 8.35658 159.787C8.23772 159.787 8.11886 159.764 8 159.761C8.17568 160.649 8.59092 161.445 9.18281 162.029C9.77471 162.613 10.511 162.952 11.2801 162.995Z" fill="black"/>
<path opacity="0.1" d="M20.2479 168.994C20.8594 169.032 21.4687 168.881 22.0173 168.557C22.5658 168.234 23.0351 167.747 23.38 167.145C23.7249 166.543 23.9338 165.846 23.9867 165.12C24.0395 164.394 23.9345 163.664 23.6818 163C23.3845 163.23 23.1253 163.523 22.917 163.865C22.6391 164.332 22.4658 164.869 22.1522 165.299C21.5506 166.1 20.5359 166.382 19.6207 166.355C18.7055 166.328 17.8821 166.073 17 165.994C17.2153 166.832 17.643 167.57 18.2244 168.107C18.8058 168.644 19.5126 168.954 20.2479 168.994Z" fill="black"/>
<path opacity="0.1" d="M19 175.987C19.3681 176.711 19.9695 177.294 20.7095 177.643C21.4494 177.993 22.2859 178.089 23.0871 177.917C23.8884 177.745 24.6091 177.314 25.1355 176.693C25.662 176.071 25.9644 175.294 25.9952 174.484C26.0215 173.978 25.9397 173.473 25.755 173C25.4498 173.197 25.1758 173.438 24.9419 173.715C24.5882 174.14 24.3586 174.62 23.9494 175.019C23.1918 175.755 21.9696 176.063 20.8821 176.086C20.2533 176.089 19.6249 176.056 19 175.987Z" fill="black"/>
<path d="M28 181.717C28 181.717 25.0434 181.619 24.1548 180.937C23.2662 180.255 19.6185 179.441 19.3864 180.536C19.1542 181.631 14.9435 185.982 18.2817 186C21.6198 186.017 26.0361 185.426 26.9246 184.853C27.8132 184.28 28 181.717 28 181.717Z" fill="#656380"/>
<path opacity="0.2" d="M18.2107 185.639C21.5522 185.666 25.9727 185.106 26.8648 184.573C27.5406 184.162 27.8104 182.683 27.9012 182H28C28 182 27.813 184.381 26.9316 184.933C26.0502 185.485 21.6189 186.021 18.2802 185.999C17.3159 185.999 16.982 185.65 17.0007 185.141C17.1263 185.442 17.4949 185.639 18.2107 185.639Z" fill="black"/>
<path d="M196.833 88.6446C195.088 88.042 193.329 87.4837 191.555 86.9697C191.848 85.7662 192.119 84.5566 192.371 83.3407C196.366 63.7971 193.754 48.0528 184.832 42.8711C176.277 37.8995 162.286 43.0838 148.152 55.4703C146.759 56.6968 145.398 57.9553 144.07 59.2456C143.178 58.386 142.272 57.5432 141.352 56.7172C126.546 43.4693 111.713 37.8889 102.788 43.0865C94.2411 48.0714 91.7052 62.872 95.3072 81.3946C95.659 83.229 96.0628 85.0528 96.5184 86.866C94.4205 87.4669 92.3913 88.1076 90.4491 88.7909C73.0883 94.8765 62 104.447 62 114.362C62 124.6 73.9037 134.87 91.9875 141.097C93.4547 141.598 94.9325 142.064 96.4208 142.495C95.9387 144.445 95.5095 146.41 95.133 148.392C91.7026 166.593 94.3836 181.045 102.907 185.998C111.713 191.119 126.49 185.855 140.877 173.184C142.014 172.181 143.154 171.118 144.307 170.007C145.746 171.405 147.223 172.763 148.738 174.08C162.676 186.163 176.446 191.044 184.958 186.075C193.754 180.947 196.611 165.42 192.901 146.534C192.62 145.091 192.292 143.619 191.917 142.118C192.957 141.809 193.974 141.489 194.967 141.158C213.766 134.883 226 124.738 226 114.362C226 104.41 214.553 94.7887 196.841 88.6446H196.833Z" fill="#53C1DE"/>
<path d="M192.767 134.476C191.869 134.776 190.951 135.063 190.011 135.345C187.719 128.181 184.944 121.183 181.706 114.4C184.821 107.707 187.488 100.812 189.689 93.7599C191.365 94.2495 192.996 94.7656 194.564 95.311C209.742 100.576 219 108.363 219 114.365C219 120.75 209 129.054 192.767 134.476ZM186.031 147.932C187.673 156.289 187.905 163.844 186.823 169.748C185.847 175.055 183.883 178.594 181.455 180.012C176.285 183.026 165.232 179.107 153.311 168.766C151.944 167.58 150.569 166.316 149.186 164.975C154.156 159.428 158.749 153.549 162.933 147.379C170.408 146.74 177.83 145.585 185.147 143.92C185.482 145.282 185.778 146.612 186.037 147.911L186.031 147.932ZM117.909 179.496C112.858 181.294 108.836 181.345 106.405 179.932C101.232 176.923 99.0813 165.3 102.016 149.736C102.368 147.897 102.766 146.067 103.212 144.247C110.499 145.825 117.883 146.903 125.315 147.474C129.621 153.624 134.325 159.48 139.395 165.007C138.376 166.002 137.334 166.969 136.27 167.909C129.907 173.518 123.528 177.487 117.909 179.496ZM94.2516 134.436C86.2523 131.679 79.6491 128.098 75.1202 124.193C71.0533 120.681 69 117.193 69 114.365C69 108.345 77.9046 100.664 92.7526 95.4467C94.6176 94.7922 96.4993 94.1954 98.3977 93.6562C100.603 100.786 103.274 107.761 106.392 114.535C103.235 121.407 100.532 128.482 98.3001 135.713C96.9383 135.321 95.5888 134.895 94.2516 134.436ZM102.182 80.0187C99.0998 64.1385 101.145 52.1584 106.297 49.1574C111.784 45.9649 123.916 50.5196 136.705 61.9675C137.523 62.6991 138.344 63.4654 139.165 64.2555C134.132 69.7483 129.465 75.5715 125.196 81.6868C117.835 82.3523 110.524 83.4978 103.309 85.1161C102.889 83.4276 102.513 81.7294 102.182 80.0214V80.0187ZM172.941 97.6282C171.338 94.8365 169.677 92.0803 167.956 89.3595C173.189 90.0273 178.201 90.9106 182.909 91.9961C181.398 96.8275 179.646 101.579 177.66 106.232C176.145 103.332 174.572 100.464 172.941 97.6282ZM144.079 69.3024C147.49 73.051 150.711 76.9703 153.731 81.0456C147.272 80.7388 140.81 80.7388 134.346 81.0456C137.531 76.8102 140.796 72.8727 144.079 69.3051V69.3024ZM115.048 97.6761C113.438 100.491 111.894 103.341 110.417 106.227C108.376 101.35 106.632 96.5534 105.207 91.9216C109.886 90.8574 114.877 90.0034 120.076 89.3462C118.331 92.0847 116.653 94.8614 115.043 97.6761H115.048ZM120.224 139.884C115.149 139.329 110.106 138.511 105.114 137.434C106.563 132.722 108.347 127.822 110.432 122.839C111.916 125.728 113.465 128.58 115.08 131.395C116.723 134.266 118.436 137.096 120.218 139.884H120.224ZM144.277 159.925C140.952 156.323 137.64 152.332 134.409 148.02C137.55 148.146 140.749 148.209 144.005 148.209C147.348 148.209 150.648 148.134 153.905 147.985C150.899 152.129 147.683 156.114 144.272 159.925H144.277ZM177.713 122.586C179.802 127.333 181.645 132.187 183.234 137.128C178.181 138.274 173.071 139.152 167.927 139.759C169.66 136.987 171.338 134.182 172.962 131.344C174.613 128.46 176.196 125.541 177.713 122.586ZM166.892 127.816C164.408 132.165 161.785 136.431 159.025 140.613C154.158 140.964 149.131 141.145 144.005 141.145C138.88 141.145 133.937 140.986 129.155 140.672C126.324 136.504 123.65 132.232 121.134 127.856C118.618 123.481 116.286 119.04 114.138 114.533C116.297 110.005 118.622 105.562 121.113 101.204C123.601 96.8478 126.252 92.5911 129.065 88.4337C133.945 88.0612 138.943 87.867 144 87.867C149.057 87.867 154.087 88.0639 158.961 88.4364C161.743 92.5813 164.382 96.8212 166.879 101.156C169.376 105.491 171.732 109.913 173.949 114.424C171.759 118.968 169.409 123.428 166.9 127.806L166.892 127.816ZM181.347 48.9446C186.839 52.1372 188.974 65.0137 185.525 81.8996C185.298 82.9975 185.051 84.0927 184.786 85.1853C177.561 83.5341 170.235 82.3672 162.857 81.6921C158.629 75.5714 153.997 69.7442 148.993 64.2502C150.225 63.0548 151.482 61.8921 152.765 60.7623C164.873 50.1392 176.19 45.9463 181.347 48.9446Z" fill="white"/>
<path d="M144 99C146.967 99 149.867 99.8797 152.334 101.528C154.8 103.176 156.723 105.519 157.858 108.26C158.993 111.001 159.291 114.017 158.712 116.926C158.133 119.836 156.704 122.509 154.607 124.607C152.509 126.704 149.836 128.133 146.926 128.712C144.017 129.291 141.001 128.994 138.26 127.858C135.519 126.723 133.176 124.8 131.528 122.334C129.88 119.867 129 116.967 129 114C129 112.03 129.387 110.079 130.141 108.259C130.895 106.439 132 104.786 133.393 103.393C134.786 102 136.439 100.895 138.259 100.141C140.079 99.3874 142.03 98.9996 144 99Z" fill="#53C1DE"/>
<path d="M148 5.50002C148 6.39004 147.736 7.26006 147.242 8.00008C146.747 8.74009 146.044 9.31686 145.222 9.65746C144.4 9.99805 143.495 10.0872 142.622 9.91353C141.749 9.7399 140.947 9.31132 140.318 8.68199C139.689 8.05265 139.26 7.25084 139.086 6.37793C138.913 5.50502 139.002 4.60022 139.343 3.77796C139.683 2.9557 140.26 2.2529 141 1.75844C141.74 1.26397 142.61 1.00005 143.5 1.00005C144.092 0.99718 144.678 1.11162 145.225 1.33674C145.773 1.56187 146.27 1.89323 146.688 2.31166C147.107 2.73009 147.438 3.22731 147.663 3.77457C147.888 4.32183 148.003 4.90828 148 5.50002Z" fill="#3F3D56"/>
<path d="M139.262 6.65517C138.908 6.01057 138.716 5.28833 138.703 4.55173C138.691 3.81513 138.858 3.08664 139.189 2.43008C139.521 1.77351 140.007 1.20891 140.605 0.785734C141.203 0.362555 141.895 0.0937126 142.621 0.00275709C142.006 -0.0189545 141.393 0.0877539 140.821 0.316182C140.248 0.54461 139.729 0.889823 139.296 1.33014C138.862 1.77046 138.524 2.29638 138.301 2.87486C138.079 3.45335 137.978 4.0719 138.004 4.69169C138.03 5.31148 138.183 5.91911 138.454 6.47643C138.724 7.03374 139.106 7.5287 139.575 7.93023C140.044 8.33175 140.59 8.63117 141.18 8.80968C141.769 8.98818 142.389 9.04192 143 8.96752C142.232 8.93893 141.485 8.71107 140.83 8.30598C140.175 7.90089 139.635 7.33228 139.262 6.65517Z" fill="#3F3D56"/>
<path d="M150 12H138V30H150V12Z" fill="#3F3D56"/>
<path opacity="0.1" d="M150 12H138V30H150V12Z" fill="black"/>
<path d="M118.841 79C118.841 79 117.598 82.5501 114.655 83.0343C111.711 83.5185 110 84.3237 110 84.3237L116.981 89L120.704 88.5158C120.704 88.5158 121.17 83.5158 122.721 82.3868C124.273 81.2579 118.841 79 118.841 79Z" fill="#A0616A"/>
<path d="M170.159 79C170.159 79 171.402 82.5501 174.345 83.0343C177.289 83.5185 179 84.3237 179 84.3237L172.019 89L168.296 88.5158C168.296 88.5158 167.83 83.5158 166.279 82.3868C164.727 81.2579 170.159 79 170.159 79Z" fill="#A0616A"/>
<path d="M135.879 48C135.879 48 134.001 48.9627 133.374 50.8881C133.374 50.8881 129.94 52.0104 128.049 55.0554C128.049 55.0554 125.698 57.6217 125.386 58.9035C125.074 60.1853 121.482 67.8816 121.482 67.8816C121.482 67.8816 117.878 79.9073 116 81.1892C116 81.1892 121.952 79.9073 123.048 86C123.048 86 124.456 86 126.023 80.3887C127.589 74.7774 131.348 67.8816 131.348 67.8816C131.348 67.8816 132.6 63.0734 133.697 62.2703C134.793 61.4671 136.515 57.7812 138.082 58.7548C139.649 59.7283 149.986 58.5925 149.986 58.5925C149.986 58.5925 156.088 61.4698 156.241 63.3925C156.394 65.3153 157.493 65.4775 157.649 67.0811C157.805 68.6847 163.601 81.3487 163.601 81.3487C163.601 81.3487 164.697 84.8642 165.011 85.6755C165.011 85.6755 168.446 77.1788 173 81.9896C173 81.9896 172.842 78.7824 171.433 76.8516C170.025 74.9207 163.915 59.8581 163.915 59.8581C163.915 59.8581 163.289 57.6136 162.663 56.9727C162.037 56.3318 157.179 51.1991 155.456 51.1991C155.456 51.1991 154.519 48.795 153.422 48.4732L135.879 48Z" fill="#3F3D56"/>
<path d="M121.991 86.7749C120.776 87.2843 119.455 87.4564 118.158 87.2744C116.86 87.0924 115.63 86.5626 114.587 85.7365C113.573 84.9235 112.462 84.2511 111.283 83.7363C109.633 83.0403 107.66 82.5252 107.059 83.6897C105.97 85.8022 120.28 91 120.28 91C120.28 91 122.148 89.8629 121.991 86.7749Z" fill="#3F3D56"/>
<path d="M168.009 86.7749C169.224 87.2843 170.545 87.4564 171.842 87.2744C173.14 87.0924 174.37 86.5626 175.413 85.7365C176.427 84.9235 177.538 84.2511 178.717 83.7363C180.367 83.0403 182.34 82.5252 182.941 83.6897C184.03 85.8022 169.72 91 169.72 91C169.72 91 167.852 89.8629 168.009 86.7749Z" fill="#3F3D56"/>
<path d="M141.367 21.7329C141.309 22.2881 141.131 22.8892 140.669 23.183C140.291 23.4256 139.813 23.4067 139.377 23.4983C138.92 23.616 138.495 23.8424 138.139 24.1594C137.782 24.4764 137.503 24.875 137.324 25.3231C136.975 26.2275 136.906 27.2207 137.127 28.1668C137.23 28.6301 137.364 29.0857 137.526 29.5306C137.983 30.8568 138.534 32.1721 139.388 33.2745C140.116 34.1509 140.934 34.9435 141.829 35.6384C142.383 36.102 142.955 36.5737 143.638 36.792C144.101 36.9175 144.577 36.9827 145.055 36.9861C145.646 37.013 146.276 37.0319 146.788 36.73C147.576 36.2637 147.809 35.2341 148.237 34.4066C148.599 33.7058 149.14 33.1101 149.479 32.3958C149.72 31.8329 149.896 31.2431 150.004 30.6384L150.731 27.3231C150.994 26.1183 151.235 24.7598 150.576 23.7274C150.528 23.6434 150.462 23.5723 150.382 23.5199C150.255 23.4686 150.117 23.4546 149.983 23.4795C149.146 23.5353 148.311 23.3396 147.581 22.9161C147.466 22.8553 147.364 22.7731 147.279 22.6735C147.174 22.5009 147.111 22.3049 147.095 22.1021C147.024 21.6914 146.912 21.2894 146.759 20.9027C146.716 20.7633 146.637 20.6385 146.531 20.5415C146.419 20.4695 146.292 20.4261 146.161 20.4148C145.037 20.2276 143.904 20.1061 142.766 20.0509C142.393 20.0321 141.832 19.8784 141.574 20.218C141.317 20.5577 141.398 21.3285 141.367 21.7329Z" fill="#A0616A"/>
<path opacity="0.1" d="M141.367 21.7329C141.309 22.2881 141.131 22.8892 140.669 23.183C140.291 23.4256 139.813 23.4067 139.377 23.4983C138.92 23.616 138.495 23.8424 138.139 24.1594C137.782 24.4764 137.503 24.875 137.324 25.3231C136.975 26.2275 136.906 27.2207 137.127 28.1668C137.23 28.6301 137.364 29.0857 137.526 29.5306C137.983 30.8568 138.534 32.1721 139.388 33.2745C140.116 34.1509 140.934 34.9435 141.829 35.6384C142.383 36.102 142.955 36.5737 143.638 36.792C144.101 36.9175 144.577 36.9827 145.055 36.9861C145.646 37.013 146.276 37.0319 146.788 36.73C147.576 36.2637 147.809 35.2341 148.237 34.4066C148.599 33.7058 149.14 33.1101 149.479 32.3958C149.72 31.8329 149.896 31.2431 150.004 30.6384L150.731 27.3231C150.994 26.1183 151.235 24.7598 150.576 23.7274C150.528 23.6434 150.462 23.5723 150.382 23.5199C150.255 23.4686 150.117 23.4546 149.983 23.4795C149.146 23.5353 148.311 23.3396 147.581 22.9161C147.466 22.8553 147.364 22.7731 147.279 22.6735C147.174 22.5009 147.111 22.3049 147.095 22.1021C147.024 21.6914 146.912 21.2894 146.759 20.9027C146.716 20.7633 146.637 20.6385 146.531 20.5415C146.419 20.4695 146.292 20.4261 146.161 20.4148C145.037 20.2276 143.904 20.1061 142.766 20.0509C142.393 20.0321 141.832 19.8784 141.574 20.218C141.317 20.5577 141.398 21.3285 141.367 21.7329Z" fill="black"/>
<path d="M138.522 23.6921C137.914 23.5039 137.285 23.4014 136.65 23.3873C135.149 23.3492 133.543 23.8853 132.677 25.1562C132.087 26.0735 131.871 27.1957 132.076 28.2776C132.285 29.3494 132.754 30.348 133.44 31.1786C133.837 31.6152 134.189 32.093 134.49 32.6046C134.905 33.421 134.918 34.398 135.031 35.3259C135.293 37.5357 136.202 39.6121 136.561 41.8083C136.921 44.0044 136.611 46.5489 134.939 47.9449C134.658 48.179 134.317 48.4266 134.293 48.7995C134.257 49.3954 135.005 49.6485 135.58 49.7057C137.299 49.8744 139.062 50.0404 140.732 49.5805C141.422 49.39 142.089 49.0934 142.792 48.9573C144.577 48.6117 146.372 49.322 148.159 49.6621C149.453 49.8835 150.762 49.9937 152.073 49.9914C152.378 50.0197 152.685 49.9779 152.973 49.869C153.116 49.811 153.237 49.7075 153.319 49.5734C153.401 49.4394 153.44 49.2817 153.43 49.1233C153.371 48.9181 153.265 48.7312 153.12 48.579C152.217 47.4224 151.942 45.8849 151.695 44.418L150.868 39.4896C150.425 36.8554 150.013 33.9925 151.215 31.6276C152.078 29.9268 153.671 28.7293 154.582 27.0557C154.899 26.5498 155.043 25.9476 154.989 25.3467C154.852 24.5058 154.12 23.9044 153.369 23.5533C151.925 22.8815 150.285 22.819 148.797 23.3791C148.824 24.5575 148.535 25.7494 148.348 26.9169L148.031 28.8219C147.869 29.9445 147.632 31.0539 147.32 32.1419C147.206 32.5772 147.013 32.9857 146.75 33.3448C146.47 33.6679 146.127 33.9266 145.745 34.1041C144.916 34.524 144.006 34.7401 143.083 34.7354C142.684 34.7418 142.287 34.6783 141.908 34.5476C141.297 34.2701 140.746 33.8685 140.288 33.3666C140.128 33.2242 139.984 33.0625 139.86 32.8849C139.73 32.6587 139.631 32.4139 139.569 32.1583C139.356 31.4927 139.189 30.8125 139.068 30.1227C138.989 29.5947 138.963 29.0586 138.926 28.5252C138.824 26.9496 138.824 25.2079 138.522 23.6921Z" fill="#406043"/>
<path d="M137.035 55C137.035 55 136.433 63.4108 140.2 64.8371C143.967 66.2634 140.652 57.8553 140.652 57.8553L139.445 55.3184L137.035 55Z" fill="#A0616A"/>
<path d="M150.958 55C150.958 55 151.68 63.4108 147.16 64.8371C142.64 66.2634 146.617 57.8553 146.617 57.8553L148.066 55.3184L150.958 55Z" fill="#A0616A"/>
<path opacity="0.1" d="M134.207 26.4925L133 28.5828C133 28.5828 134.057 35.8165 134.207 37.1016C134.338 38.029 134.54 38.9431 134.813 39.8346C134.813 39.8346 134.964 43.6927 134.964 45.1405C134.964 46.5883 135.728 48.9986 135.728 48.9986C135.834 50.3651 136.091 51.7137 136.492 53.0167C137.096 54.7844 137.699 56.8748 137.699 56.8748C137.699 56.8748 138.463 54.6245 141.474 58C141.811 57.6358 142 57.1449 142 56.6335C142 56.1221 141.811 55.6313 141.474 55.2671C141.474 55.2671 140.57 50.929 140.57 48.676C140.57 46.4229 138.906 35.6619 138.906 35.6619C138.906 35.6619 137.826 23.4287 134.207 26.4925Z" fill="black"/>
<path d="M133.341 26.4751L132 28.5004C132 28.5004 133.174 35.5091 133.341 36.7542C133.486 37.6529 133.712 38.5387 134.017 39.4022C134.017 39.4022 134.184 43.1403 134.184 44.5405C134.184 45.9406 135.032 48.2786 135.032 48.2786C135.15 49.6027 135.435 50.9094 135.881 52.1717C136.551 53.8871 137.225 55.9098 137.225 55.9098C137.225 55.9098 138.073 53.7295 141.417 57C141.791 56.6472 142 56.1722 142 55.6773C142 55.1825 141.791 54.7075 141.417 54.3547C141.417 54.3547 140.41 50.1516 140.41 47.9686C140.41 45.7856 138.566 35.3593 138.566 35.3593C138.566 35.3593 137.366 23.5145 133.341 26.4751Z" fill="#406043"/>
<path opacity="0.1" d="M154.026 24.9184L154.797 25.8793C154.797 25.8793 155.695 31.3725 153.712 38.3138L153.102 44.6073C153.102 44.6073 152.035 49.9344 151.883 51.2247C151.731 52.515 151.731 52.6756 151.425 53.1601C151.332 53.2735 151.281 53.4184 151.281 53.5684C151.281 53.7184 151.332 53.8634 151.425 53.9767L150.509 57.5155C150.509 57.5155 149.138 55.7407 146.394 58C146.394 58 145.622 56.7097 146.239 55.5801C146.857 54.4504 146.849 53.9659 146.697 53.6419C146.545 53.318 147.307 51.7065 147.307 51.3826C147.307 51.0587 148.382 43.641 148.382 43.641C148.382 43.641 148.84 36.3784 149.298 33.9585C149.578 32.4695 149.573 29.1513 149.524 26.8157C149.475 24.3822 152.258 23.0647 153.897 24.7741C153.936 24.8177 153.982 24.8585 154.026 24.9184Z" fill="black"/>
<path d="M154.917 25.2161L155.775 26.139C155.775 26.139 156.773 31.4176 154.568 38.0818L153.89 44.1265C153.89 44.1265 152.703 49.2429 152.534 50.4822C152.366 51.7214 152.363 51.8783 152.025 52.3437C151.921 52.4523 151.864 52.5916 151.864 52.7358C151.864 52.8801 151.921 53.0194 152.025 53.128L151.013 56.5372C151.013 56.5372 149.488 54.83 146.437 57C146.437 57 145.579 55.7607 146.268 54.6758C146.957 53.5908 146.946 53.1254 146.777 52.8169C146.608 52.5084 147.455 50.9554 147.455 50.6469C147.455 50.3384 148.642 43.2062 148.642 43.2062C148.642 43.2062 149.151 36.2308 149.66 33.904C150.169 31.5771 149.829 24.6044 149.829 24.6044C149.829 24.6044 152.543 22.8997 154.917 25.2161Z" fill="#406043"/>
<path d="M144 23C147.314 23 150 20.0899 150 16.5C150 12.9101 147.314 10 144 10C140.686 10 138 12.9101 138 16.5C138 20.0899 140.686 23 144 23Z" fill="#A0616A"/>
<path opacity="0.1" d="M147 7.32383C146.707 8.09807 146.17 8.76916 145.462 9.24733C144.754 9.7255 143.909 9.98796 143.039 9.9996C142.169 10.0112 141.317 9.7715 140.595 9.31245C139.873 8.85341 139.316 8.19694 139 7.43086C141.383 6.5235 143.817 7.33112 143.817 7.33112C145.034 6.92731 146.089 6.9638 147 7.32383Z" fill="black"/>
<path d="M144.489 7.36727C144.489 7.36727 132.513 3.05424 135.469 23.9886C135.469 23.9886 138.114 25.7462 140.134 24.6275C140.134 24.6275 138.736 10.0845 144.179 10.7234C149.623 11.3622 148.689 24.3094 148.689 24.3094C148.689 24.3094 151.8 25.2664 152.734 23.5007C153.668 21.7351 152.422 4.5018 144.489 7.36727Z" fill="#3F3D56"/>
<path opacity="0.1" d="M143.831 10.0186C140.424 9.61761 139.955 15.7792 140.003 19.6855C140.044 15.8014 140.675 10.5261 143.831 10.8999C147.375 11.3183 147.956 17.4996 147.997 21C148.038 17.7868 147.698 10.4766 143.831 10.0186Z" fill="black"/>
<path opacity="0.1" d="M135.453 22.899C135.189 20.9457 135.038 18.9753 135.001 17C134.988 19.3171 135.139 21.6318 135.453 23.9219C135.453 23.9219 138.031 25.7954 140 24.6029C140 24.6029 139.969 24.2351 139.934 23.6174C137.972 24.7294 135.453 22.899 135.453 22.899Z" fill="black"/>
<path opacity="0.1" d="M152.69 22.4152C151.68 23.7033 148.484 23.1376 148.052 23.0508C148.03 23.5169 148 23.7965 148 23.7965C148 23.7965 151.607 24.5486 152.69 23.1609C152.912 22.8771 153.028 22.0741 152.994 21C152.964 21.6885 152.857 22.2033 152.69 22.4152Z" fill="black"/>
<path d="M218.23 180C219.445 177.639 218.066 174.746 216.481 172.641C214.896 170.535 212.96 168.338 213.001 165.65C213.06 161.791 216.963 159.516 220.084 157.47C222.398 155.953 224.532 154.154 226.442 152.111C227.211 151.291 227.947 150.414 228.396 149.366C229.042 147.86 229.024 146.139 228.983 144.494C228.848 138.989 228.592 133.491 228.214 128" stroke="#3F3D56" stroke-width="4" stroke-miterlimit="10"/>
<path d="M234.996 127.723C234.95 126.719 234.652 125.742 234.129 124.883C233.606 124.024 232.875 123.311 232.003 122.81L230.662 125.465L230.702 122.246C229.482 121.886 228.179 121.922 226.981 122.35C225.783 122.778 224.752 123.576 224.037 124.628C223.322 125.68 222.96 126.933 223.003 128.204C223.047 129.476 223.493 130.7 224.278 131.702C225.063 132.703 226.146 133.429 227.37 133.774C228.594 134.12 229.897 134.067 231.09 133.624C232.282 133.181 233.303 132.371 234.005 131.31C234.706 130.248 235.053 128.992 234.993 127.721L234.996 127.723Z" fill="#406043"/>
<path d="M224.342 167.744C223.712 168.968 222.68 169.939 221.419 170.493C220.158 171.047 218.745 171.15 217.417 170.787C216.088 170.423 214.926 169.614 214.123 168.495C213.321 167.376 212.928 166.015 213.011 164.641C213.093 163.266 213.646 161.962 214.576 160.947C215.507 159.932 216.758 159.268 218.121 159.065C219.483 158.863 220.874 159.135 222.059 159.835C223.245 160.536 224.153 161.623 224.632 162.914L220.873 165.965L225 165.007C225.002 165.959 224.777 166.897 224.342 167.744Z" fill="#406043"/>
<path d="M221.245 156.987C219.78 157.049 218.342 156.57 217.205 155.641C216.068 154.713 215.311 153.398 215.077 151.947C214.843 150.497 215.148 149.01 215.935 147.77C216.722 146.53 217.936 145.622 219.346 145.218L219.314 147.692L220.669 145.009H220.686C221.475 144.966 222.265 145.08 223.01 145.345C223.755 145.609 224.44 146.019 225.027 146.55C225.613 147.081 226.089 147.723 226.426 148.439C226.764 149.155 226.957 149.931 226.993 150.722C227.03 151.513 226.911 152.303 226.641 153.048C226.372 153.792 225.958 154.476 225.424 155.06C224.89 155.643 224.245 156.115 223.528 156.448C222.811 156.781 222.035 156.969 221.245 157V156.987Z" fill="#406043"/>
<path d="M235.288 146.993C234.359 147.037 233.433 146.864 232.582 146.489C231.731 146.114 230.979 145.547 230.385 144.832C229.791 144.117 229.371 143.275 229.159 142.37C228.946 141.466 228.947 140.524 229.161 139.62C229.375 138.716 229.796 137.874 230.391 137.16C230.986 136.447 231.739 135.881 232.591 135.507C233.442 135.133 234.369 134.962 235.298 135.007C236.227 135.052 237.133 135.312 237.944 135.766L236.87 138.671L239.054 136.579C239.928 137.379 240.545 138.421 240.827 139.571C241.11 140.722 241.045 141.93 240.641 143.044C240.237 144.158 239.511 145.127 238.557 145.83C237.602 146.533 236.46 146.938 235.275 146.993H235.288Z" fill="#406043"/>
<path opacity="0.1" d="M234.314 129.174C232.911 129.332 231.55 129.778 230.145 129.867C228.74 129.955 227.196 129.612 226.309 128.482C225.829 127.882 225.591 127.123 225.186 126.467C224.803 125.858 224.278 125.354 223.659 125C223.268 125.785 223.045 126.646 223.006 127.526C222.967 128.406 223.112 129.284 223.432 130.102C223.752 130.92 224.239 131.659 224.861 132.27C225.482 132.88 226.225 133.349 227.038 133.643C227.851 133.938 228.717 134.052 229.577 133.978C230.437 133.904 231.271 133.644 232.025 133.215C232.778 132.786 233.434 132.197 233.947 131.489C234.46 130.781 234.819 129.969 235 129.108C234.769 129.133 234.542 129.15 234.314 129.174Z" fill="black"/>
<path opacity="0.1" d="M235.362 146.993C234.315 147.043 233.273 146.811 232.337 146.32C231.401 145.829 230.604 145.096 230.022 144.191C229.44 143.286 229.094 142.24 229.017 141.156C228.939 140.071 229.133 138.984 229.58 138C230.064 138.337 230.48 138.768 230.803 139.271C231.235 139.947 231.499 140.731 232.007 141.354C232.952 142.507 234.571 142.884 236.039 142.817C237.506 142.749 238.919 142.315 240.386 142.174C240.59 142.157 240.794 142.143 241 142.137C240.698 143.473 239.983 144.669 238.966 145.546C237.948 146.422 236.683 146.93 235.362 146.993Z" fill="black"/>
<path opacity="0.1" d="M221.422 156.993C220.375 157.044 219.333 156.815 218.395 156.328C217.458 155.84 216.655 155.111 216.065 154.209C215.475 153.307 215.117 152.263 215.024 151.176C214.931 150.089 215.108 148.996 215.536 148C216.042 148.346 216.482 148.786 216.833 149.299C217.31 149.999 217.607 150.804 218.166 151.453C219.2 152.652 220.939 153.075 222.508 153.035C224.027 153.001 225.489 152.612 227 152.492C226.629 153.749 225.893 154.856 224.895 155.662C223.896 156.467 222.683 156.932 221.422 156.993Z" fill="black"/>
<path opacity="0.1" d="M224 167.784C223.327 169.128 222.164 170.159 220.755 170.663C219.346 171.167 217.798 171.104 216.433 170.488C215.069 169.871 213.992 168.749 213.429 167.355C212.865 165.96 212.857 164.4 213.406 163C213.885 163.316 214.315 163.702 214.682 164.146C215.235 164.823 215.599 165.592 216.24 166.222C217.428 167.397 219.345 167.88 221.052 167.925C222.036 167.936 223.021 167.889 224 167.784Z" fill="black"/>
<path d="M209 176.574C209 176.574 213.834 176.428 215.299 175.405C216.765 174.382 222.738 173.163 223.1 174.801C223.461 176.439 230.366 182.955 224.908 182.998C219.449 183.042 212.224 182.162 210.769 181.288C209.315 180.413 209 176.574 209 176.574Z" fill="#656380"/>
<path opacity="0.2" d="M225.004 182.472C219.542 182.512 212.313 181.689 210.858 180.875C209.762 180.252 209.31 178.028 209.162 177H209C209 177 209.307 180.588 210.762 181.401C212.217 182.215 219.446 183.039 224.908 182.999C226.484 182.999 227.029 182.472 226.999 181.709C226.78 182.165 226.179 182.452 225.004 182.472Z" fill="black"/>
<path d="M84.7352 11.4723L79.9486 14.4886L82.8546 9.2355C82.0346 8.58376 81.0194 8.22232 79.9696 8.20834H79.8909C79.5589 8.21296 79.2272 8.18854 78.8995 8.13535L77.276 9.15729L77.9711 7.90072C76.8222 7.50168 75.8292 6.75273 75.1332 5.76037L72.2298 7.58527L74.0658 4.26917C72.3662 2.24354 70.0792 1 67.5587 1C64.5399 1 61.8515 2.78579 60.1153 5.56746C59.6018 6.39917 58.8762 7.08122 58.0122 7.54452C57.1481 8.00783 56.1763 8.23593 55.195 8.20574H55.0324C51.6988 8.20574 49 11.9624 49 16.5977C49 21.2329 51.7014 24.987 55.0324 24.987C55.764 24.9849 56.484 24.8059 57.1306 24.4656C59.3048 23.342 62.1584 23.3211 64.435 24.3248C65.411 24.7612 66.4687 24.9879 67.5389 24.9901C68.6091 24.9924 69.6678 24.7701 70.6457 24.3378C72.9065 23.355 75.726 23.3758 77.8871 24.4786C78.5283 24.8158 79.2416 24.9946 79.967 25C83.3005 25 85.9993 21.2433 85.9993 16.6107C86.0193 14.8195 85.5845 13.0522 84.7352 11.4723Z" fill="#F2F2F2"/>
<path opacity="0.03" d="M76 23.7936C74.2405 23.4653 72.4212 23.659 70.7744 24.35C69.7867 24.7807 68.7176 25.0022 67.6368 25C66.556 24.9977 65.4878 24.7718 64.502 24.337C62.1992 23.336 59.3161 23.3568 57.1193 24.4774C56.4661 24.8168 55.7386 24.9953 54.9994 24.9974C52.0077 24.9974 49.5194 22.0386 49 18.1386C49.5977 17.7114 50.1052 17.1746 50.4946 16.5578C52.2594 13.7862 54.965 12 58.015 12C61.0651 12 63.7494 13.7602 65.5037 16.5032C66.0272 17.332 66.7598 18.0142 67.6307 18.4838C68.5016 18.9534 69.4812 19.1945 70.4749 19.1838H70.5438C72.9287 19.1864 74.9957 21.061 76 23.7936Z" fill="black"/>
<path d="M211.339 17.6838L208.892 19.3219L210.384 16.4829C209.963 16.1243 209.439 15.9244 208.898 15.915H208.86C208.689 15.9176 208.518 15.9043 208.35 15.8753L207.516 16.4431L207.867 15.7447C207.278 15.5286 206.768 15.1222 206.41 14.5835L204.921 15.5772L205.863 13.7772C205.466 13.2392 204.961 12.8005 204.384 12.4932C203.807 12.1858 203.172 12.0173 202.526 12C200.974 12 199.596 12.971 198.706 14.4813C198.441 14.9312 198.068 15.2994 197.625 15.5487C197.181 15.798 196.683 15.9195 196.181 15.9009H196.097C194.387 15.9009 193 17.9421 193 20.4433C193 22.9445 194.387 25 196.097 25C196.473 24.9986 196.843 24.9012 197.176 24.7161C197.758 24.4185 198.395 24.2575 199.042 24.2442C199.689 24.231 200.331 24.3659 200.923 24.6394C201.425 24.8743 201.967 24.9957 202.516 24.9957C203.065 24.9957 203.608 24.8743 204.109 24.6394C204.697 24.3713 205.334 24.2394 205.974 24.2526C206.615 24.2659 207.246 24.4239 207.824 24.7161C208.156 24.9013 208.527 24.9987 208.903 25C210.613 25 212 22.9616 212 20.4433C212.003 19.4798 211.775 18.5309 211.339 17.6838Z" fill="#F2F2F2"/>
<path opacity="0.03" d="M207 24.3416C206.088 24.1657 205.146 24.2705 204.293 24.6427C203.781 24.8755 203.227 24.9958 202.667 24.9958C202.107 24.9958 201.553 24.8755 201.041 24.6427C200.436 24.3715 199.78 24.2379 199.119 24.251C198.458 24.2641 197.808 24.4237 197.213 24.7186C196.874 24.9028 196.496 24.9994 196.112 25C194.559 25 193.27 23.4047 193 21.3002C193.309 21.0717 193.572 20.7853 193.777 20.4562C194.685 18.9594 196.095 18 197.676 18C199.256 18 200.647 18.9482 201.556 20.4281C201.827 20.8757 202.207 21.2441 202.658 21.4975C203.11 21.7509 203.618 21.8807 204.133 21.8742H204.175C205.411 21.8545 206.471 22.8674 207 24.3416Z" fill="black"/>
<path d="M54.027 57.7161L57.9163 60.2351L55.5604 55.8512C56.2284 55.3072 57.0546 55.0063 57.9083 54.9962H57.9693C58.2358 55.0003 58.5022 54.9803 58.7652 54.9365L60.0784 55.7888L59.508 54.741C60.4384 54.4063 61.2428 53.7817 61.8082 52.9549L64.1613 54.4805L62.6916 51.7144C64.0685 50.0261 65.9229 49 67.963 49C70.4117 49 72.5898 50.4875 73.9985 52.8002C74.4136 53.4932 75.0002 54.0618 75.699 54.4483C76.3977 54.8349 77.1839 55.0258 77.9779 55.0016H78.1106C80.8113 55.0016 83 58.1341 83 61.9995C83 65.8648 80.8113 69 78.1106 69C77.5158 68.9976 76.9304 68.8477 76.4047 68.563C75.4854 68.1059 74.4799 67.8588 73.4579 67.8386C72.4359 67.8185 71.4219 68.0258 70.486 68.4463C69.693 68.8089 68.8342 68.9964 67.9657 68.9964C67.0971 68.9964 66.2383 68.8089 65.4454 68.4463C64.5161 68.0344 63.5113 67.8317 62.4988 67.8518C61.4863 67.872 60.4899 68.1145 59.577 68.563C59.0566 68.8401 58.4791 68.9862 57.8924 68.9891C55.189 68.9891 53.0003 65.8567 53.0003 61.9886C52.9876 60.4989 53.3406 59.0299 54.027 57.7161Z" fill="#F2F2F2"/>
<path opacity="0.03" d="M61 67.9663C62.4331 67.6906 63.9142 67.8552 65.2556 68.4391C66.0607 68.8064 66.9326 68.9963 67.8144 68.9963C68.6962 68.9963 69.5681 68.8064 70.3732 68.4391C71.3238 68.0132 72.3538 67.8032 73.3918 67.8236C74.4298 67.844 75.451 68.0944 76.3849 68.5574C76.9177 68.8457 77.5111 68.9976 78.1141 69C80.5517 69 82.5771 66.4954 83 63.1907C82.5136 62.8273 82.1003 62.3718 81.7826 61.849C80.3523 59.5011 78.141 58 75.655 58C73.1689 58 70.9873 59.4901 69.557 61.816C69.1315 62.5168 68.5361 63.0936 67.8284 63.491C67.1207 63.8883 66.3245 64.0926 65.5169 64.0842H65.4549C63.4995 64.065 61.8188 65.6541 61 67.9663Z" fill="black"/>
<path d="M257.732 186C256.966 184.547 257.834 182.766 258.826 181.469C259.817 180.171 261.025 178.831 261 177.172C260.964 174.798 258.522 173.397 256.572 172.139C255.126 171.205 253.792 170.097 252.597 168.839C252.098 168.355 251.685 167.783 251.376 167.151C250.972 166.223 250.985 165.168 251.011 164.15C251.094 160.763 251.256 157.38 251.496 154" stroke="#3F3D56" stroke-width="4" stroke-miterlimit="10"/>
<path d="M248.006 153.822C248.033 153.151 248.207 152.498 248.513 151.924C248.819 151.351 249.247 150.874 249.756 150.539L250.541 152.313L250.518 150.165C250.893 150.037 251.283 149.983 251.673 150.005C252.364 150.044 253.029 150.316 253.585 150.787C254.14 151.257 254.561 151.905 254.794 152.649C255.028 153.393 255.063 154.199 254.896 154.966C254.729 155.733 254.367 156.426 253.856 156.958C253.344 157.49 252.707 157.837 252.023 157.955C251.339 158.073 250.64 157.957 250.014 157.622C249.388 157.286 248.863 156.746 248.505 156.07C248.147 155.394 247.973 154.611 248.003 153.822H248.006Z" fill="#406043"/>
<path d="M254.387 179.088C254.734 179.776 255.303 180.329 256.002 180.661C256.701 180.993 257.491 181.084 258.248 180.921C259.005 180.757 259.686 180.348 260.183 179.758C260.681 179.168 260.966 178.43 260.995 177.661C261.02 177.18 260.943 176.699 260.768 176.25C260.518 175.586 260.068 175.014 259.48 174.612C258.892 174.21 258.194 173.996 257.48 174C256.766 174.004 256.07 174.226 255.487 174.635C254.903 175.044 254.46 175.621 254.217 176.288L256.404 178.055L254 177.5C253.999 178.052 254.131 178.597 254.387 179.088Z" fill="#406043"/>
<path d="M256.289 171.989C257.151 172.064 258.006 171.763 258.685 171.145C259.364 170.527 259.817 169.637 259.956 168.651C260.094 167.665 259.907 166.655 259.431 165.821C258.956 164.987 258.227 164.39 257.388 164.147L257.406 165.795L256.622 164.004C255.705 163.955 254.809 164.328 254.13 165.042C253.452 165.756 253.047 166.752 253.004 167.811C252.961 168.871 253.284 169.906 253.902 170.69C254.52 171.474 255.382 171.942 256.299 171.991L256.289 171.989Z" fill="#406043"/>
<path d="M247.338 165.996C248.265 166.046 249.17 165.672 249.856 164.959C250.542 164.245 250.952 163.248 250.996 162.189C251.04 161.129 250.714 160.093 250.089 159.308C249.465 158.524 248.594 158.055 247.667 158.005C247.013 157.968 246.362 158.144 245.791 158.513L246.41 160.453L245.135 159.055C244.453 159.769 244.046 160.764 244.005 161.82C243.988 162.19 244.018 162.56 244.094 162.919C244.269 163.766 244.68 164.524 245.265 165.08C245.85 165.635 246.578 165.957 247.338 165.996Z" fill="#406043"/>
<path opacity="0.1" d="M248.403 154.353C249.225 154.442 250.023 154.694 250.847 154.744C251.671 154.794 252.576 154.6 253.098 153.971C253.38 153.629 253.519 153.2 253.755 152.831C253.981 152.486 254.289 152.201 254.652 152C254.867 152.442 254.985 152.923 254.999 153.412C255.012 153.901 254.921 154.388 254.731 154.84C254.541 155.293 254.257 155.701 253.896 156.038C253.536 156.376 253.107 156.635 252.639 156.799C252.17 156.962 251.671 157.027 251.175 156.989C250.679 156.952 250.197 156.811 249.76 156.578C249.322 156.345 248.94 156.024 248.636 155.636C248.333 155.248 248.116 154.801 248 154.325C248.134 154.33 248.269 154.34 248.403 154.353Z" fill="black"/>
<path opacity="0.1" d="M247.28 165.995C247.892 166.031 248.502 165.879 249.05 165.553C249.597 165.227 250.064 164.738 250.404 164.133C250.744 163.529 250.947 162.831 250.991 162.106C251.035 161.382 250.92 160.656 250.656 160C250.374 160.225 250.132 160.514 249.943 160.848C249.69 161.301 249.536 161.822 249.24 162.239C248.686 163.009 247.743 163.261 246.886 163.213C246.028 163.165 245.201 162.88 244.357 162.787C244.238 162.787 244.119 162.764 244 162.761C244.176 163.649 244.591 164.445 245.183 165.029C245.775 165.613 246.511 165.952 247.28 165.995Z" fill="black"/>
<path opacity="0.1" d="M256.248 171.994C256.859 172.032 257.469 171.881 258.017 171.557C258.566 171.234 259.035 170.747 259.38 170.145C259.725 169.543 259.934 168.846 259.987 168.12C260.04 167.394 259.935 166.664 259.682 166C259.385 166.23 259.125 166.523 258.917 166.865C258.639 167.332 258.466 167.869 258.152 168.299C257.551 169.1 256.536 169.382 255.621 169.355C254.706 169.328 253.882 169.073 253 168.994C253.215 169.832 253.643 170.57 254.224 171.107C254.806 171.644 255.513 171.954 256.248 171.994Z" fill="black"/>
<path opacity="0.1" d="M254 178.987C254.368 179.711 254.97 180.294 255.709 180.643C256.449 180.993 257.286 181.089 258.087 180.917C258.888 180.745 259.609 180.314 260.136 179.693C260.662 179.071 260.964 178.294 260.995 177.484C261.022 176.978 260.94 176.473 260.755 176C260.45 176.197 260.176 176.438 259.942 176.715C259.588 177.14 259.359 177.62 258.949 178.019C258.192 178.755 256.97 179.063 255.882 179.086C255.253 179.089 254.625 179.056 254 178.987Z" fill="black"/>
<path d="M263 184.717C263 184.717 260.312 184.619 259.504 183.937C258.697 183.255 255.38 182.441 255.169 183.536C254.958 184.631 251.13 188.982 254.165 189C257.2 189.017 261.215 188.426 262.022 187.853C262.83 187.28 263 184.717 263 184.717Z" fill="#656380"/>
<path opacity="0.2" d="M254.101 188.639C257.138 188.666 261.157 188.106 261.968 187.573C262.582 187.162 262.828 185.683 262.91 185H263C263 185 262.83 187.381 262.029 187.933C261.227 188.485 257.199 189.021 254.164 188.999C253.287 188.999 252.984 188.65 253.001 188.141C253.115 188.442 253.45 188.639 254.101 188.639Z" fill="black"/>
</svg>
