<svg width="340" height="193" viewBox="0 0 340 193" fill="none" xmlns="http://www.w3.org/2000/svg">
<g clip-path="url(#clip0)">
<path d="M166.419 160.453C171.501 167.27 171.763 177.288 171.763 177.288C171.763 177.288 163.787 176.255 158.705 169.439C153.623 162.623 153.361 152.604 153.361 152.604C153.361 152.604 161.337 153.637 166.419 160.453Z" fill="#406043"/>
<path d="M182.417 171.093C176.964 177.445 168.949 177.773 168.949 177.773C168.949 177.773 169.775 167.803 175.228 161.451C180.681 155.099 188.696 154.77 188.696 154.77C188.696 154.77 187.87 164.741 182.417 171.093Z" fill="#406043"/>
<path d="M181.061 191.323H161.005C160.62 191.323 160.243 191.188 159.917 190.933C159.59 190.678 159.328 190.313 159.16 189.881L154.793 178.66C154.641 178.27 154.571 177.837 154.589 177.403C154.608 176.968 154.714 176.547 154.899 176.179C155.083 175.81 155.34 175.506 155.644 175.296C155.948 175.085 156.29 174.974 156.638 174.974H185.428C185.776 174.974 186.118 175.085 186.422 175.296C186.726 175.506 186.983 175.81 187.167 176.179C187.352 176.547 187.458 176.968 187.477 177.403C187.495 177.837 187.425 178.27 187.273 178.66L182.906 189.881C182.738 190.313 182.475 190.678 182.149 190.933C181.823 191.188 181.446 191.323 181.061 191.323Z" fill="#3F3D56"/>
<path d="M271.135 54.4866C280.358 54.4866 287.835 45.1406 287.835 33.6118C287.835 22.083 280.358 12.737 271.135 12.737C261.911 12.737 254.435 22.083 254.435 33.6118C254.435 45.1406 261.911 54.4866 271.135 54.4866Z" fill="#FFB8B8"/>
<path d="M258.67 44.0492C258.67 44.0492 261.816 73.6974 256.975 77.0252C252.135 80.353 285.777 80.6556 285.777 80.6556C285.777 80.6556 278.274 54.9403 281.662 47.0745L258.67 44.0492Z" fill="#FFB8B8"/>
<path d="M310.343 80.8056L307.545 96.7308L301.629 130.423L301.452 132.269L299.41 153.63L298.052 167.821L297.141 177.353C291.605 180.91 287.592 183.365 287.592 183.365C287.592 183.365 287.247 181.202 286.69 178.435C282.804 179.891 275.614 182.307 269.521 182.789C271.74 185.881 272.76 188.784 271.377 190.928C267.203 197.389 249.97 183.854 243.943 178.806C243.803 180.015 243.75 181.237 243.784 182.457L239.172 178.023L239.628 167.821L240.398 150.558L241.366 128.91C241.061 127.983 240.805 127.032 240.6 126.063C239.188 119.784 237.473 107.245 236.158 96.7308C235.1 88.2686 234.305 81.1179 234.137 79.5963C234.114 79.3976 234.103 79.2954 234.103 79.2954L259.636 65.1927C261.45 70.4528 269.923 72.034 269.923 72.034C276.943 71.4294 282.446 66.8023 282.446 66.8023L310.343 80.8056Z" fill="#D0CDE1"/>
<path d="M289.529 177.316C289.529 177.316 288.448 177.779 286.69 178.435C282.805 179.891 275.615 182.307 269.522 182.789C264.276 183.209 259.843 182.199 259.032 177.921C258.685 176.081 259.177 174.568 260.252 173.325C263.458 169.609 271.834 168.278 278.476 167.821C280.352 167.693 282.087 167.633 283.531 167.611C285.984 167.571 287.592 167.633 287.592 167.633L287.631 167.821L289.529 177.316Z" fill="#FFB8B8"/>
<path d="M257.242 13.8662L254.119 12.3036C254.119 12.3036 260.648 3.31887 269.732 4.10019L267.177 0.584382C267.177 0.584382 273.422 -2.54071 279.099 5.66271C282.083 9.97506 285.536 15.044 287.689 20.7541H291.033L289.637 24.5954L294.522 28.4367L289.508 27.7467C289.807 29.8503 289.853 31.9978 289.644 34.1182C289.429 36.2393 288.563 38.173 287.229 39.5112C287.229 39.5112 283.357 29.4918 283.357 27.9292V31.8356C283.357 31.8356 280.234 28.3199 280.234 25.9761L278.531 28.7105L277.68 24.4135L267.177 28.7105L268.88 25.1948L262.351 26.3667L264.906 22.0696C264.906 22.0696 257.526 27.148 257.242 31.445C256.958 35.742 254.798 39.8138 254.798 39.8138C254.798 39.8138 249.01 19.7258 257.242 13.8662Z" fill="#2F2E41"/>
<path d="M328.494 154.019C326.794 156.324 322.579 159.796 317.469 163.554C315.568 164.951 313.545 166.39 311.48 167.821C306.554 171.236 301.397 174.619 297.141 177.353C291.605 180.91 287.592 183.365 287.592 183.365C287.592 183.365 287.247 181.202 286.69 178.435C285.945 174.73 284.823 169.941 283.654 167.821C283.613 167.747 283.572 167.679 283.531 167.611C283.191 167.051 282.848 166.725 282.509 166.725L299.41 153.63L306.713 147.97L301.452 132.269L294.852 112.574L298.835 96.7308L302.839 80.8056H310.342C310.342 80.8056 312.827 87.5845 316.004 97.0374C316.479 98.451 316.969 99.9243 317.469 101.446C324.005 121.317 332.153 149.065 328.494 154.019Z" fill="#D0CDE1"/>
<path d="M271.377 190.928C267.203 197.389 249.971 183.854 243.943 178.806C242.631 177.708 241.85 177.012 241.85 177.012L247.364 167.821L249.11 164.911C249.11 164.911 250.672 165.947 252.982 167.633C253.066 167.696 253.15 167.758 253.236 167.821C255.228 169.283 257.728 171.193 260.251 173.325C263.733 176.269 267.253 179.627 269.522 182.789C271.74 185.881 272.76 188.785 271.377 190.928Z" fill="#FFB8B8"/>
<path d="M252.982 167.633C252.366 167.63 251.75 167.693 251.142 167.821C245.921 168.942 244.382 174.849 243.943 178.806C243.803 180.015 243.75 181.237 243.784 182.457L239.172 178.023L237.491 176.408C233.447 174.645 229.843 171.514 226.718 167.821C224.007 164.56 221.575 160.955 219.462 157.065C217.357 153.23 215.481 149.207 213.848 145.029C213.393 143.863 213.148 142.586 213.131 141.288C213.114 139.991 213.326 138.704 213.751 137.52L219.462 121.609L227.81 98.3545C227.872 97.801 227.939 97.2598 228.012 96.7308C229.668 84.865 234.103 79.5963 234.103 79.5963H237.491L239.758 96.7308L242.574 118.018L240.6 126.063L236.04 144.643L240.398 150.558L252.982 167.633Z" fill="#D0CDE1"/>
<path d="M256.817 118.035L259.713 122.26C260.79 122.003 261.913 121.702 263.071 121.363L262.239 118.035L264.273 121.002C276.536 117.232 291.736 109.902 291.736 109.902C291.736 109.902 275.326 111.406 263.074 108.06C257.653 106.58 252.075 109.939 249.851 116.293C248.558 119.986 248.761 123.186 253.347 123.186C254.896 123.153 256.441 122.972 257.969 122.643L256.817 118.035Z" fill="#406043"/>
<path d="M322.851 187.465V189.188C322.852 189.661 322.782 190.129 322.645 190.57C322.584 190.766 322.51 190.956 322.424 191.138C322.154 191.706 321.77 192.176 321.31 192.502C320.85 192.829 320.33 193 319.801 193H218.39C217.861 193 217.342 192.829 216.882 192.502C216.422 192.176 216.038 191.706 215.767 191.138C215.682 190.956 215.608 190.766 215.547 190.57C215.41 190.129 215.34 189.661 215.34 189.188V187.465C215.34 186.964 215.419 186.468 215.572 186.005C215.726 185.543 215.95 185.122 216.233 184.768C216.517 184.414 216.853 184.134 217.223 183.942C217.593 183.751 217.99 183.652 218.39 183.652H224.236V182.849C224.236 182.828 224.239 182.807 224.245 182.788C224.252 182.769 224.261 182.751 224.273 182.736C224.285 182.722 224.299 182.71 224.314 182.702C224.33 182.694 224.346 182.69 224.363 182.69H227.413C227.43 182.69 227.446 182.694 227.462 182.702C227.477 182.71 227.491 182.722 227.503 182.736C227.515 182.751 227.524 182.769 227.53 182.788C227.537 182.807 227.54 182.828 227.54 182.849V183.652H229.445V182.849C229.445 182.828 229.449 182.807 229.455 182.788C229.461 182.769 229.471 182.751 229.483 182.736C229.494 182.722 229.509 182.71 229.524 182.702C229.539 182.694 229.556 182.69 229.573 182.69H232.623C232.639 182.69 232.656 182.694 232.671 182.702C232.687 182.71 232.701 182.722 232.713 182.736C232.724 182.751 232.734 182.769 232.74 182.788C232.747 182.807 232.75 182.828 232.75 182.849V183.652H234.657V182.849C234.657 182.828 234.661 182.807 234.667 182.788C234.673 182.769 234.683 182.751 234.695 182.736C234.706 182.722 234.72 182.71 234.736 182.702C234.751 182.694 234.768 182.69 234.785 182.69H237.835C237.851 182.69 237.868 182.694 237.883 182.702C237.899 182.71 237.913 182.722 237.924 182.736C237.936 182.751 237.946 182.769 237.952 182.788C237.958 182.807 237.962 182.828 237.962 182.849V183.652H239.867V182.849C239.867 182.828 239.87 182.807 239.877 182.788C239.883 182.769 239.892 182.751 239.904 182.736C239.916 182.722 239.93 182.71 239.946 182.702C239.961 182.694 239.978 182.69 239.994 182.69H243.044C243.061 182.69 243.077 182.694 243.093 182.702C243.108 182.71 243.122 182.722 243.134 182.736C243.146 182.751 243.155 182.769 243.162 182.788C243.168 182.807 243.171 182.828 243.171 182.849V183.652H245.077V182.849C245.077 182.828 245.08 182.807 245.086 182.788C245.093 182.769 245.102 182.751 245.114 182.736C245.126 182.722 245.14 182.71 245.155 182.702C245.171 182.694 245.187 182.69 245.204 182.69H248.254C248.271 182.69 248.287 182.694 248.303 182.702C248.318 182.71 248.332 182.722 248.344 182.736C248.356 182.751 248.365 182.769 248.371 182.788C248.378 182.807 248.381 182.828 248.381 182.849V183.652H250.289V182.849C250.289 182.828 250.292 182.807 250.298 182.788C250.305 182.769 250.314 182.751 250.326 182.736C250.338 182.722 250.352 182.71 250.367 182.702C250.383 182.694 250.399 182.69 250.416 182.69H253.466C253.482 182.69 253.499 182.694 253.514 182.702C253.53 182.71 253.544 182.722 253.556 182.736C253.568 182.751 253.577 182.769 253.583 182.788C253.59 182.807 253.593 182.828 253.593 182.849V183.652H255.498V182.849C255.498 182.828 255.502 182.807 255.508 182.788C255.514 182.769 255.524 182.751 255.535 182.736C255.547 182.722 255.561 182.71 255.577 182.702C255.592 182.694 255.609 182.69 255.625 182.69H279.516C279.533 182.69 279.55 182.694 279.565 182.702C279.58 182.71 279.594 182.722 279.606 182.736C279.618 182.751 279.627 182.769 279.634 182.788C279.64 182.807 279.644 182.828 279.644 182.849V183.652H281.551V182.849C281.551 182.828 281.554 182.807 281.561 182.788C281.567 182.769 281.576 182.751 281.588 182.736C281.6 182.722 281.614 182.71 281.63 182.702C281.645 182.694 281.662 182.69 281.678 182.69H284.728C284.762 182.69 284.794 182.707 284.818 182.737C284.842 182.767 284.855 182.807 284.855 182.849V183.652H286.761V182.849C286.761 182.828 286.764 182.807 286.77 182.788C286.777 182.769 286.786 182.751 286.798 182.736C286.81 182.722 286.824 182.71 286.839 182.702C286.855 182.694 286.871 182.69 286.888 182.69H289.938C289.955 182.69 289.971 182.694 289.987 182.702C290.002 182.71 290.016 182.722 290.028 182.736C290.04 182.751 290.049 182.769 290.055 182.788C290.062 182.807 290.065 182.828 290.065 182.849V183.652H291.97V182.849C291.97 182.828 291.974 182.807 291.98 182.788C291.986 182.769 291.996 182.751 292.008 182.736C292.019 182.722 292.033 182.71 292.049 182.702C292.064 182.694 292.081 182.69 292.098 182.69H295.148C295.164 182.69 295.181 182.694 295.196 182.702C295.212 182.71 295.226 182.722 295.238 182.736C295.249 182.751 295.259 182.769 295.265 182.788C295.271 182.807 295.275 182.828 295.275 182.849V183.652H297.182V182.849C297.182 182.828 297.186 182.807 297.192 182.788C297.198 182.769 297.208 182.751 297.22 182.736C297.231 182.722 297.245 182.71 297.261 182.702C297.276 182.694 297.293 182.69 297.31 182.69H300.359C300.393 182.69 300.425 182.707 300.448 182.737C300.472 182.767 300.485 182.807 300.484 182.849V183.652H302.392V182.849C302.392 182.828 302.395 182.807 302.402 182.788C302.408 182.769 302.417 182.751 302.429 182.736C302.441 182.722 302.455 182.71 302.47 182.702C302.486 182.694 302.502 182.69 302.519 182.69H305.569C305.586 182.69 305.602 182.694 305.618 182.702C305.633 182.71 305.647 182.722 305.659 182.736C305.671 182.751 305.68 182.769 305.687 182.788C305.693 182.807 305.696 182.828 305.696 182.849V183.652H307.602V182.849C307.602 182.828 307.605 182.807 307.611 182.788C307.618 182.769 307.627 182.751 307.639 182.736C307.651 182.722 307.665 182.71 307.68 182.702C307.696 182.694 307.712 182.69 307.729 182.69H310.779C310.795 182.69 310.812 182.694 310.827 182.702C310.843 182.71 310.857 182.722 310.869 182.736C310.881 182.751 310.89 182.769 310.896 182.788C310.903 182.807 310.906 182.828 310.906 182.849V183.652H319.801C320.202 183.652 320.599 183.751 320.969 183.942C321.339 184.134 321.675 184.414 321.958 184.768C322.242 185.122 322.466 185.543 322.619 186.005C322.773 186.468 322.851 186.964 322.851 187.465Z" fill="#3F3D56"/>
<path d="M314.686 114.899H276.887V113.925H259.747V114.899H221.792C221.456 114.899 221.124 114.981 220.814 115.142C220.503 115.303 220.222 115.538 219.984 115.835C219.747 116.132 219.558 116.484 219.43 116.872C219.301 117.259 219.235 117.675 219.235 118.095V182.792C219.235 183.64 219.505 184.453 219.984 185.052C220.464 185.651 221.114 185.988 221.792 185.988H314.686C315.364 185.988 316.014 185.651 316.494 185.052C316.973 184.453 317.242 183.64 317.242 182.792V118.095C317.242 117.675 317.176 117.259 317.048 116.872C316.919 116.484 316.731 116.132 316.494 115.835C316.256 115.538 315.974 115.303 315.664 115.142C315.354 114.981 315.021 114.899 314.686 114.899Z" fill="#3F3D56"/>
<path d="M268.313 144.583C271.449 144.583 273.991 141.406 273.991 137.486C273.991 133.567 271.449 130.389 268.313 130.389C265.178 130.389 262.636 133.567 262.636 137.486C262.636 141.406 265.178 144.583 268.313 144.583Z" stroke="#D0CDE1" stroke-width="2" stroke-miterlimit="10"/>
<path d="M266.497 147.138C269.632 147.138 272.174 143.96 272.174 140.041C272.174 136.122 269.632 132.944 266.497 132.944C263.361 132.944 260.819 136.122 260.819 140.041C260.819 143.96 263.361 147.138 266.497 147.138Z" fill="#D0CDE1"/>
<path d="M99.7933 83.5492C104.358 83.5492 108.059 78.9236 108.059 73.2175C108.059 67.5115 104.358 62.8858 99.7933 62.8858C95.2284 62.8858 91.5278 67.5115 91.5278 73.2175C91.5278 78.9236 95.2284 83.5492 99.7933 83.5492Z" fill="#2F2E41"/>
<path d="M102.096 63.1702C103.527 63.1705 104.932 63.6347 106.176 64.5175C107.42 65.4003 108.46 66.6714 109.193 68.2067C109.926 69.742 110.328 71.4888 110.36 73.2764C110.391 75.064 110.051 76.8312 109.372 78.4052C110.089 77.2845 110.611 75.9895 110.905 74.6027C111.199 73.2159 111.259 71.7678 111.08 70.3505C110.902 68.9333 110.489 67.578 109.868 66.3712C109.248 65.1643 108.433 64.1323 107.476 63.3408C106.518 62.5494 105.44 62.016 104.308 61.7745C103.177 61.533 102.018 61.5887 100.904 61.9382C99.7912 62.2876 98.7484 62.9231 97.8426 63.8042C96.9367 64.6852 96.1876 65.7925 95.6431 67.0554C96.4157 65.8429 97.3972 64.8638 98.5144 64.1912C99.6317 63.5185 100.856 63.1695 102.096 63.1702Z" fill="#2F2E41"/>
<path d="M84.3481 73.1957C97.7574 73.1957 108.628 59.6078 108.628 42.8463C108.628 26.0848 97.7574 12.4969 84.3481 12.4969C70.9388 12.4969 60.0684 26.0848 60.0684 42.8463C60.0684 59.6078 70.9388 73.1957 84.3481 73.1957Z" fill="#2F2E41"/>
<path d="M65.2927 24.0159C69.4763 18.1347 75.3242 14.5153 81.6023 13.9216C87.8804 13.3279 94.0974 15.8063 98.9413 20.8337C98.7428 20.5978 98.5463 20.36 98.34 20.1308C93.5274 14.7829 87.2123 12.0438 80.784 12.516C74.3557 12.9882 68.3408 16.6331 64.0624 22.6489C59.7841 28.6646 57.5928 36.5584 57.9706 44.5937C58.3484 52.629 61.2643 60.1475 66.0769 65.4954C66.2833 65.7247 66.4952 65.9407 66.7059 66.1595C62.1442 60.7353 59.4468 53.3079 59.1832 45.4449C58.9195 37.5818 61.1101 29.8983 65.2927 24.0159Z" fill="#2F2E41"/>
<path d="M84.1427 72.9384C92.7792 72.9384 99.7804 64.1869 99.7804 53.3914C99.7804 42.5959 92.7792 33.8443 84.1427 33.8443C75.5062 33.8443 68.5049 42.5959 68.5049 53.3914C68.5049 64.1869 75.5062 72.9384 84.1427 72.9384Z" fill="#A0616A"/>
<path d="M73.0317 59.5641C73.0317 59.5641 75.0893 83.2263 71.7971 85.7983C68.5049 88.3703 90.7271 91.9711 90.7271 91.9711C90.7271 91.9711 87.4349 66.2513 95.6653 59.5642L73.0317 59.5641Z" fill="#A0616A"/>
<path d="M92.7846 81.6832C92.7846 81.6832 98.9123 78.1064 90.0871 79.3804C81.2619 80.6544 73.6479 75.7676 73.6479 75.7676C73.6479 75.7676 70.9739 72.424 70.5624 76.0248C70.1509 79.6256 71.797 86.3127 62.7435 87.3415C53.6901 88.3703 45.4596 85.2839 42.1675 92.9999C38.8753 100.716 40.5214 134.152 40.5214 134.152C40.5214 134.152 46.6942 161.929 51.6325 166.044C56.5707 170.159 99.7804 164.501 99.7804 164.501L112.126 136.724V104.317C112.126 104.317 110.48 92.9999 98.9574 96.0863C98.9574 96.0863 91.55 94.0287 91.9615 89.3991C92.373 84.7696 92.7846 81.6832 92.7846 81.6832Z" fill="#D0CDE1"/>
<path d="M53.2657 185.702C53.52 184.316 53.6903 183.533 53.6903 183.533L53.5586 182.406L52.2028 170.898L51.6328 166.044C56.5699 163.472 57.8054 151.64 57.8054 151.64L57.9916 151.501L58.8341 150.871V150.868L61.8591 148.6L61.9204 148.554L63.1422 149.571L65.6244 151.64C68.8786 154.675 72.6035 156.828 76.5613 157.962C80.519 159.095 84.6223 159.184 88.6091 158.223C90.4648 157.826 92.2792 157.17 94.0186 156.27L100.005 153.775L100.191 153.698L100.375 153.732L103.886 154.396L103.95 154.411L104.24 154.465L103.427 161.49L102.249 171.701C105.362 173.762 108.131 177.634 110.551 182.406C111.087 183.462 111.607 184.56 112.109 185.702C112.763 187.178 113.388 188.714 113.983 190.286C114.056 190.474 114.126 190.664 114.196 190.854C114.426 191.47 114.653 192.092 114.873 192.716H52.1756C52.2573 192.089 52.3391 191.49 52.4186 190.914C52.4227 190.894 52.4257 190.874 52.4277 190.854C52.4572 190.661 52.4844 190.474 52.5094 190.286C52.7865 188.413 53.0544 186.849 53.2657 185.702Z" fill="#2F2E41"/>
<path d="M50.8096 86.8272C50.8096 86.8272 55.3363 97.1151 53.6902 109.975C52.0441 122.835 58.6285 154.727 58.6285 154.727L63.5667 153.184C63.5667 153.184 60.2745 126.436 61.0976 120.263C61.9206 114.09 61.9206 89.9135 57.8054 86.8272C53.6902 83.7408 50.8096 86.8272 50.8096 86.8272Z" fill="#2F2E41"/>
<path d="M98.668 97.5183L100.398 154.47L103.69 157.042C103.69 157.042 108.422 94.5431 105.953 94.5431H100.929C100.622 94.5431 100.318 94.6212 100.036 94.7726C99.7539 94.9241 99.4993 95.1457 99.2877 95.424C99.0762 95.7023 98.9122 96.0315 98.8056 96.3915C98.6991 96.7516 98.6523 97.135 98.668 97.5183Z" fill="#2F2E41"/>
<path d="M60.8916 153.441C62.028 153.441 62.9492 152.29 62.9492 150.869C62.9492 149.449 62.028 148.297 60.8916 148.297C59.7552 148.297 58.834 149.449 58.834 150.869C58.834 152.29 59.7552 153.441 60.8916 153.441Z" fill="#406043"/>
<path d="M102.044 156.013C103.18 156.013 104.102 154.862 104.102 153.441C104.102 152.021 103.18 150.869 102.044 150.869C100.908 150.869 99.9863 152.021 99.9863 153.441C99.9863 154.862 100.908 156.013 102.044 156.013Z" fill="#406043"/>
<path d="M70.7681 28.9574V48.5046H74.3895L78.9983 42.3319L78.3811 48.5046H94.3895L93.4019 42.3319L95.3771 48.5046H97.9283V28.9574H70.7681Z" fill="#2F2E41"/>
<path d="M68.299 52.1054C68.9809 52.1054 69.5336 50.8387 69.5336 49.2762C69.5336 47.7137 68.9809 46.4471 68.299 46.4471C67.6172 46.4471 67.0645 47.7137 67.0645 49.2762C67.0645 50.8387 67.6172 52.1054 68.299 52.1054Z" fill="#A0616A"/>
<path d="M99.986 52.1054C100.668 52.1054 101.221 50.8387 101.221 49.2762C101.221 47.7137 100.668 46.4471 99.986 46.4471C99.3042 46.4471 98.7515 47.7137 98.7515 49.2762C98.7515 50.8387 99.3042 52.1054 99.986 52.1054Z" fill="#A0616A"/>
<path d="M108.422 153.184C108.422 153.184 89.6982 148.812 88.4636 156.528C87.2291 164.244 109.245 160.9 109.245 160.9L108.422 153.184Z" fill="#A0616A"/>
<path d="M108.011 100.201C108.011 100.201 152.866 144.954 144.636 155.756C136.405 166.559 105.13 163.472 105.13 163.472L107.187 150.612L125.294 148.04L116.241 136.724L108.011 137.752V100.201Z" fill="#D0CDE1"/>
<path d="M41.7559 174.789L47.5171 180.447C47.5171 180.447 51.6324 196.393 57.8052 191.764C63.978 187.134 52.0439 170.674 52.0439 170.674L45.048 167.587L41.7559 174.789Z" fill="#A0616A"/>
<path d="M47.5172 91.9711L41.7714 94.1324C41.7714 94.1324 1.83835 131.065 0.192263 141.353C-1.45382 151.641 8.01116 157.299 8.01116 157.299L43.8135 178.39L47.5172 166.044L30.6448 155.242C30.6448 155.242 31.8794 152.155 26.9411 151.641C22.0029 151.127 21.1798 144.439 21.1798 144.439C21.1798 144.439 31.0563 125.407 36.4061 129.522C41.7559 133.637 43.402 136.724 43.402 136.724L47.5172 91.9711Z" fill="#D0CDE1"/>
<path d="M129.469 187.465V189.188C129.469 189.661 129.399 190.129 129.262 190.57C129.201 190.766 129.127 190.956 129.042 191.138C128.771 191.706 128.387 192.176 127.927 192.502C127.467 192.829 126.947 193 126.419 193H25.0075C24.4786 193 23.9588 192.829 23.499 192.502C23.0392 192.176 22.6551 191.706 22.3845 191.138C22.2989 190.956 22.2252 190.766 22.1642 190.57C22.0269 190.129 21.9568 189.661 21.9575 189.188V187.465C21.9574 186.964 22.0362 186.468 22.1895 186.005C22.3427 185.543 22.5674 185.122 22.8506 184.768C23.1338 184.414 23.4701 184.134 23.8402 183.942C24.2103 183.751 24.6069 183.652 25.0075 183.652H30.853V182.849C30.853 182.828 30.8562 182.807 30.8626 182.788C30.869 182.769 30.8784 182.751 30.8902 182.736C30.902 182.722 30.916 182.71 30.9315 182.702C30.9469 182.694 30.9635 182.69 30.9802 182.69H34.0301C34.0468 182.69 34.0634 182.694 34.0788 182.702C34.0943 182.71 34.1083 182.722 34.1201 182.736C34.1319 182.751 34.1413 182.769 34.1477 182.788C34.154 182.807 34.1573 182.828 34.1573 182.849V183.652H36.0626V182.849C36.0626 182.828 36.0659 182.807 36.0723 182.788C36.0787 182.769 36.088 182.751 36.0998 182.736C36.1116 182.722 36.1257 182.71 36.1411 182.702C36.1566 182.694 36.1731 182.69 36.1898 182.69H39.2398C39.2565 182.69 39.273 182.694 39.2885 182.702C39.3039 182.71 39.3179 182.722 39.3297 182.736C39.3416 182.751 39.3509 182.769 39.3573 182.788C39.3637 182.807 39.367 182.828 39.3669 182.849V183.652H41.2746V182.849C41.2746 182.828 41.2778 182.807 41.2842 182.788C41.2906 182.769 41.3 182.751 41.3118 182.736C41.3236 182.722 41.3376 182.71 41.3531 182.702C41.3685 182.694 41.3851 182.69 41.4018 182.69H44.4517C44.4684 182.69 44.485 182.694 44.5004 182.702C44.5159 182.71 44.5299 182.722 44.5417 182.736C44.5535 182.751 44.5629 182.769 44.5693 182.788C44.5756 182.807 44.5789 182.828 44.5789 182.849V183.652H46.4842V182.849C46.4842 182.828 46.4875 182.807 46.4939 182.788C46.5002 182.769 46.5096 182.751 46.5214 182.736C46.5332 182.722 46.5473 182.71 46.5627 182.702C46.5782 182.694 46.5947 182.69 46.6114 182.69H49.6614C49.6781 182.69 49.6946 182.694 49.7101 182.702C49.7255 182.71 49.7395 182.722 49.7513 182.736C49.7632 182.751 49.7725 182.769 49.7789 182.788C49.7853 182.807 49.7886 182.828 49.7885 182.849V183.652H51.6939V182.849C51.6939 182.828 51.6971 182.807 51.7035 182.788C51.7099 182.769 51.7193 182.751 51.7311 182.736C51.7429 182.722 51.7569 182.71 51.7724 182.702C51.7878 182.694 51.8044 182.69 51.8211 182.69H54.871C54.8877 182.69 54.9043 182.694 54.9197 182.702C54.9352 182.71 54.9492 182.722 54.961 182.736C54.9728 182.751 54.9822 182.769 54.9886 182.788C54.9949 182.807 54.9982 182.828 54.9982 182.849V183.652H56.9058V182.849C56.9058 182.828 56.909 182.807 56.9154 182.788C56.9218 182.769 56.9312 182.751 56.943 182.736C56.9548 182.722 56.9688 182.71 56.9843 182.702C56.9997 182.694 57.0163 182.69 57.033 182.69H60.0829C60.0996 182.69 60.1162 182.694 60.1316 182.702C60.1471 182.71 60.1611 182.722 60.1729 182.736C60.1847 182.751 60.1941 182.769 60.2005 182.788C60.2069 182.807 60.2101 182.828 60.2101 182.849V183.652H62.1155V182.849C62.1155 182.828 62.1187 182.807 62.1251 182.788C62.1315 182.769 62.1409 182.751 62.1527 182.736C62.1645 182.722 62.1785 182.71 62.194 182.702C62.2094 182.694 62.2259 182.69 62.2426 182.69H86.1335C86.1502 182.69 86.1667 182.694 86.1822 182.702C86.1976 182.71 86.2116 182.722 86.2235 182.736C86.2353 182.751 86.2446 182.769 86.251 182.788C86.2574 182.807 86.2607 182.828 86.2606 182.849V183.652H88.1683V182.849C88.1683 182.828 88.1715 182.807 88.1779 182.788C88.1843 182.769 88.1936 182.751 88.2055 182.736C88.2173 182.722 88.2313 182.71 88.2467 182.702C88.2622 182.694 88.2787 182.69 88.2954 182.69H91.3454C91.379 182.69 91.4112 182.707 91.435 182.737C91.4587 182.767 91.4722 182.807 91.4726 182.849V183.652H93.3779V182.849C93.3779 182.828 93.3812 182.807 93.3876 182.788C93.3939 182.769 93.4033 182.751 93.4151 182.736C93.4269 182.722 93.441 182.71 93.4564 182.702C93.4719 182.694 93.4884 182.69 93.5051 182.69H96.555C96.5717 182.69 96.5883 182.694 96.6037 182.702C96.6192 182.71 96.6332 182.722 96.645 182.736C96.6568 182.751 96.6662 182.769 96.6726 182.788C96.679 182.807 96.6822 182.828 96.6822 182.849V183.652H98.5876V182.849C98.5875 182.828 98.5908 182.807 98.5972 182.788C98.6036 182.769 98.6129 182.751 98.6248 182.736C98.6366 182.722 98.6506 182.71 98.6661 182.702C98.6815 182.694 98.698 182.69 98.7147 182.69H101.765C101.781 182.69 101.798 182.694 101.813 182.702C101.829 182.71 101.843 182.722 101.855 182.736C101.866 182.751 101.876 182.769 101.882 182.788C101.889 182.807 101.892 182.828 101.892 182.849V183.652H103.799V182.849C103.799 182.828 103.803 182.807 103.809 182.788C103.816 182.769 103.825 182.751 103.837 182.736C103.849 182.722 103.863 182.71 103.878 182.702C103.893 182.694 103.91 182.69 103.927 182.69H106.977C107.01 182.69 107.042 182.707 107.065 182.737C107.089 182.767 107.102 182.807 107.102 182.849V183.652H109.009V182.849C109.009 182.828 109.012 182.807 109.019 182.788C109.025 182.769 109.035 182.751 109.046 182.736C109.058 182.722 109.072 182.71 109.088 182.702C109.103 182.694 109.12 182.69 109.136 182.69H112.186C112.203 182.69 112.22 182.694 112.235 182.702C112.25 182.71 112.264 182.722 112.276 182.736C112.288 182.751 112.297 182.769 112.304 182.788C112.31 182.807 112.313 182.828 112.313 182.849V183.652H114.219V182.849C114.219 182.828 114.222 182.807 114.228 182.788C114.235 182.769 114.244 182.751 114.256 182.736C114.268 182.722 114.282 182.71 114.297 182.702C114.313 182.694 114.329 182.69 114.346 182.69H117.396C117.413 182.69 117.429 182.694 117.445 182.702C117.46 182.71 117.474 182.722 117.486 182.736C117.498 182.751 117.507 182.769 117.513 182.788C117.52 182.807 117.523 182.828 117.523 182.849V183.652H126.419C126.819 183.652 127.216 183.751 127.586 183.942C127.956 184.134 128.292 184.414 128.575 184.768C128.859 185.122 129.083 185.543 129.237 186.005C129.39 186.468 129.469 186.964 129.469 187.465Z" fill="#3F3D56"/>
<path d="M121.303 114.897H83.5038V113.924H66.3642V114.897H28.4094C27.7313 114.897 27.0809 115.234 26.6014 115.833C26.1219 116.433 25.8525 117.246 25.8525 118.093V182.791C25.8525 183.638 26.1219 184.451 26.6014 185.051C27.0809 185.65 27.7312 185.987 28.4094 185.987H121.303C121.981 185.987 122.631 185.65 123.111 185.051C123.59 184.451 123.86 183.638 123.86 182.791V118.093C123.86 117.246 123.59 116.433 123.111 115.833C122.631 115.234 121.981 114.897 121.303 114.897Z" fill="#3F3D56"/>
<path d="M74.9304 144.582C78.066 144.582 80.6079 141.404 80.6079 137.485C80.6079 133.565 78.066 130.388 74.9304 130.388C71.7948 130.388 69.2529 133.565 69.2529 137.485C69.2529 141.404 71.7948 144.582 74.9304 144.582Z" stroke="#D0CDE1" stroke-width="2" stroke-miterlimit="10"/>
<path d="M73.1135 147.136C76.2491 147.136 78.791 143.959 78.791 140.04C78.791 136.12 76.2491 132.943 73.1135 132.943C69.9779 132.943 67.436 136.12 67.436 140.04C67.436 143.959 69.9779 147.136 73.1135 147.136Z" fill="#D0CDE1"/>
<path d="M340 190.881H4.18701V191.765H340V190.881Z" fill="#3F3D56"/>
</g>
<defs>
<clipPath id="clip0">
<rect width="340" height="193" fill="white"/>
</clipPath>
</defs>
</svg>
