<svg width="70" height="70" viewBox="0 0 107 107" fill="none" xmlns="http://www.w3.org/2000/svg">
<path d="M99.8268 80.355C95.0425 88.5513 88.5529 95.0408 80.3564 99.8248C72.1584 104.609 63.2091 107 53.5017 107C43.7953 107 34.8433 104.609 26.6468 99.8248C18.4497 95.0416 11.9602 88.552 7.17592 80.355C2.3914 72.1575 0 63.2056 0 53.5C0 43.7939 2.39214 34.8434 7.17519 26.6454C11.9592 18.4492 18.4488 11.9596 26.6458 7.17515C34.8433 2.39163 43.7946 -2.70071e-06 53.5007 -2.70071e-06C63.2069 -2.70071e-06 72.1591 2.39163 80.3561 7.17515C88.5527 11.9579 95.042 18.4492 99.8258 26.6454C104.609 34.8427 107 43.7944 107 53.5C107 63.2066 104.609 72.1588 99.8268 80.355ZM88.2614 57.053L56.6361 25.4267C55.7543 24.5449 54.7085 24.1023 53.501 24.1023C52.2937 24.1023 51.2491 24.5446 50.3664 25.4267L18.7399 57.053C17.8573 57.9351 17.4159 58.9801 17.4159 60.1872C17.4159 61.3947 17.8573 62.4405 18.7399 63.3227L25.8448 70.4281C26.7283 71.3109 27.7723 71.752 28.9804 71.752C30.1877 71.752 31.2327 71.3106 32.115 70.4281L53.5012 49.042L74.8875 70.4281C75.7693 71.3109 76.8145 71.752 78.0221 71.752C79.2296 71.752 80.2749 71.3106 81.1567 70.4281L88.2626 63.3227C89.1461 62.4405 89.587 61.3947 89.587 60.1872C89.5865 58.9801 89.1456 57.9351 88.2614 57.053Z" fill="#294E31"/>
</svg>
